<?xml version="1.0" encoding="iso-8859-1"?>
<!-- Generator: Adobe Illustrator 17.0.0, SVG Export Plug-In . SVG Version: 6.00 Build 0)  -->
<!DOCTYPE svg PUBLIC "-//W3C//DTD SVG 1.1//EN" "http://www.w3.org/Graphics/SVG/1.1/DTD/svg11.dtd">
<svg version="1.1" id="Layer_1" xmlns="http://www.w3.org/2000/svg" xmlns:xlink="http://www.w3.org/1999/xlink" x="0px" y="0px"
	 width="135px" height="44px" viewBox="0 0 135 44" style="enable-background:new 0 0 135 44;" xml:space="preserve">
<g>
	<g>
		<polygon style="fill:#FFFFFF;" points="130,35 19,35 3,32 2,30 3,24 3,13 18,12 40,12 93,12 95.004,10.121 101,13 126,16 130,18 
			132,21 133,25 133,32 		"/>
		<path style="fill:#6D6E70;" d="M95.004,10.121L101,13l25,3l4,2l2,3l1,4v7l-3,3H19L3,32l-1-2l1-6V13l15-1h22h53L95.004,10.121
			 M95.004,8.121c-0.498,0-0.99,0.186-1.368,0.541L92.209,10H40H18c-0.044,0-0.089,0.001-0.133,0.004l-15,1
			C1.816,11.074,1,11.947,1,13v10.834l-0.973,5.837c-0.069,0.417-0.005,0.845,0.184,1.223l1,2c0.28,0.56,0.805,0.956,1.42,1.071
			l16,3C18.753,36.989,18.876,37,19,37h111c0.53,0,1.039-0.211,1.414-0.586l3-3C134.789,33.039,135,32.53,135,32v-7
			c0-0.164-0.02-0.326-0.06-0.485l-1-4c-0.056-0.222-0.149-0.434-0.276-0.624l-2-3c-0.193-0.29-0.458-0.524-0.77-0.679l-4-2
			c-0.206-0.103-0.428-0.169-0.656-0.197l-24.671-2.961l-5.698-2.736C95.594,8.186,95.298,8.121,95.004,8.121L95.004,8.121z"/>
	</g>
	<g>
		<path style="fill:#929497;" d="M39.81,36c0.12-0.65,0.19-1.316,0.19-2c0-6.074-4.926-11-11-11c-6.074,0-11,4.926-11,11
			c0,0.684,0.07,1.35,0.19,2H39.81z"/>
		<path style="fill:#6D6E70;" d="M29,23c6.074,0,11,4.926,11,11c0,0.684-0.07,1.35-0.19,2H18.19C18.07,35.35,18,34.684,18,34
			C18,27.926,22.926,23,29,23 M29,22c-6.617,0-12,5.383-12,12c0,0.714,0.068,1.427,0.207,2.182C17.295,36.656,17.708,37,18.19,37
			H39.81c0.482,0,0.896-0.344,0.983-0.818C40.932,35.427,41,34.714,41,34C41,27.383,35.617,22,29,22L29,22z"/>
	</g>
	<g>
		<g>
			<circle style="fill:#D0D2D3;" cx="29" cy="34" r="8"/>
			<path style="fill:#6D6E70;" d="M29,26c4.418,0,8,3.582,8,8s-3.582,8-8,8s-8-3.582-8-8S24.582,26,29,26 M29,24
				c-5.514,0-10,4.486-10,10s4.486,10,10,10s10-4.486,10-10S34.514,24,29,24L29,24z"/>
		</g>
		<g>
			<circle style="fill:#FFFFFF;" cx="29" cy="34" r="4"/>
			<path style="fill:#6D6E70;" d="M29,30c2.209,0,4,1.791,4,4s-1.791,4-4,4s-4-1.791-4-4S26.791,30,29,30 M29,29
				c-2.757,0-5,2.243-5,5s2.243,5,5,5s5-2.243,5-5S31.757,29,29,29L29,29z"/>
		</g>
		<g>
			<circle style="fill:#929497;" cx="29" cy="34" r="1"/>
			<path style="fill:#BBBDBF;" d="M29,33c0.553,0,1,0.447,1,1s-0.447,1-1,1s-1-0.447-1-1S28.447,33,29,33 M29,32
				c-1.103,0-2,0.897-2,2s0.897,2,2,2s2-0.897,2-2S30.103,32,29,32L29,32z"/>
		</g>
	</g>
	<g>
		<path style="fill:#929497;" d="M122.81,36c0.12-0.65,0.19-1.316,0.19-2c0-6.074-4.926-11-11-11c-6.074,0-11,4.926-11,11
			c0,0.684,0.07,1.35,0.19,2H122.81z"/>
		<path style="fill:#6D6E70;" d="M112,23c6.074,0,11,4.926,11,11c0,0.684-0.07,1.35-0.19,2H101.19c-0.12-0.65-0.19-1.316-0.19-2
			C101,27.926,105.926,23,112,23 M112,22c-6.617,0-12,5.383-12,12c0,0.714,0.068,1.427,0.207,2.182
			c0.088,0.474,0.501,0.818,0.983,0.818h21.619c0.482,0,0.896-0.344,0.983-0.818C123.932,35.427,124,34.714,124,34
			C124,27.383,118.617,22,112,22L112,22z"/>
	</g>
	<g>
		<g>
			<circle style="fill:#D0D2D3;" cx="112" cy="34" r="8"/>
			<path style="fill:#6D6E70;" d="M112,26c4.418,0,8,3.582,8,8s-3.582,8-8,8s-8-3.582-8-8S107.582,26,112,26 M112,24
				c-5.514,0-10,4.486-10,10s4.486,10,10,10s10-4.486,10-10S117.514,24,112,24L112,24z"/>
		</g>
		<g>
			<circle style="fill:#FFFFFF;" cx="112" cy="34" r="4"/>
			<path style="fill:#6D6E70;" d="M112,30c2.209,0,4,1.791,4,4s-1.791,4-4,4s-4-1.791-4-4S109.791,30,112,30 M112,29
				c-2.757,0-5,2.243-5,5s2.243,5,5,5s5-2.243,5-5S114.757,29,112,29L112,29z"/>
		</g>
		<g>
			<circle style="fill:#929497;" cx="112" cy="34" r="1"/>
			<path style="fill:#BBBDBF;" d="M112,33c0.553,0,1,0.447,1,1s-0.447,1-1,1s-1-0.447-1-1S111.447,33,112,33 M112,32
				c-1.103,0-2,0.897-2,2s0.897,2,2,2s2-0.897,2-2S113.103,32,112,32L112,32z"/>
		</g>
	</g>
	<g>
		<polygon style="fill:#E6E7E8;" points="124,19 124,21 130,24 133,24 132,21 131,19 		"/>
		<path style="fill:#6D6E70;" d="M131,19l1,2l1,3h-3l-6-3v-2H131 M131,18h-7c-0.552,0-1,0.448-1,1v2
			c0,0.379,0.214,0.725,0.553,0.894l6,3C129.692,24.964,129.845,25,130,25h3c0.321,0,0.623-0.155,0.811-0.415
			c0.188-0.261,0.239-0.596,0.137-0.901l-1-3c-0.015-0.045-0.033-0.089-0.054-0.131l-1-2C131.725,18.214,131.379,18,131,18L131,18z"
			/>
	</g>
	<g>
		<polygon style="fill:#E6E7E8;" points="3,16 9,16 9,19 7,21 3,21 		"/>
		<path style="fill:#6D6E70;" d="M9,16v3l-2,2H3v-5H9 M9,15H3c-0.552,0-1,0.448-1,1v5c0,0.552,0.448,1,1,1h4
			c0.265,0,0.52-0.105,0.707-0.293l2-2C9.895,19.52,10,19.265,10,19v-3C10,15.448,9.552,15,9,15L9,15z"/>
	</g>
	<rect x="60" y="12" style="fill:#6D6E70;" width="1" height="23"/>
	<rect x="28" y="12" style="fill:#6D6E70;" width="1" height="7"/>
	<polygon style="fill:#6D6E70;" points="31,21 30,21 28,19 29,19 	"/>
	<g>
		<rect x="97" y="15" style="fill:#6D6E70;" width="1" height="11"/>
		<polygon style="fill:#6D6E70;" points="98,15 97,15 95,10 96,10 		"/>
		<polygon style="fill:#6D6E70;" points="96,35 95,35 97,26 98,26 		"/>
	</g>
	<g>
		<rect x="64" y="16" style="fill:#A6A8AB;" width="3" height="1"/>
		<path style="fill:#6D6E70;" d="M67,16v1h-3v-1H67 M67,15h-3c-0.552,0-1,0.448-1,1v1c0,0.552,0.448,1,1,1h3c0.552,0,1-0.448,1-1v-1
			C68,15.448,67.552,15,67,15L67,15z"/>
	</g>
	<g>
		<rect x="33" y="16" style="fill:#A6A8AB;" width="3" height="1"/>
		<path style="fill:#6D6E70;" d="M36,16v1h-3v-1H36 M36,15h-3c-0.552,0-1,0.448-1,1v1c0,0.552,0.448,1,1,1h3c0.552,0,1-0.448,1-1v-1
			C37,15.448,36.552,15,36,15L36,15z"/>
	</g>
	<g>
		<polygon style="fill:#BBBDBF;" points="78,1 80,1 97,10 93,10 		"/>
		<path style="fill:#6D6E70;" d="M80,1l17,9h-4L78,1H80 M80,0h-2c-0.449,0-0.844,0.3-0.964,0.733s0.064,0.893,0.449,1.124l15,9
			C92.641,10.951,92.819,11,93,11h4c0.459,0,0.86-0.313,0.971-0.759s-0.097-0.91-0.503-1.125l-17-9C80.324,0.04,80.163,0,80,0L80,0z
			"/>
	</g>
	<g>
		<polygon style="fill:#FFFFFF;" points="88,9 90,9 91,11 91,13 88,13 		"/>
		<path style="fill:#6D6E70;" d="M90,9l1,2v2h-3V9H90 M90,8h-2c-0.552,0-1,0.448-1,1v4c0,0.552,0.448,1,1,1h3c0.552,0,1-0.448,1-1
			v-2c0-0.155-0.036-0.308-0.106-0.447l-1-2C90.725,8.214,90.379,8,90,8L90,8z"/>
	</g>
	<g>
		<path style="fill:#929497;" d="M30,10c0,0,0-1,0-2s1-2,2-2c1,0,2,1,2,2s1,2,1,2H30z"/>
		<path style="fill:#6D6E70;" d="M32,6c1,0,2,1,2,2s1,2,1,2h-5c0,0,0-1,0-2S31,6,32,6 M32,5c-1.542,0-3,1.458-3,3v2
			c0,0.552,0.448,1,1,1h5c0.404,0,0.769-0.244,0.924-0.617c0.155-0.374,0.069-0.804-0.217-1.09C35.424,9.005,35,8.392,35,8
			C35,6.458,33.542,5,32,5L32,5z"/>
	</g>
	<g>
		<path style="fill:#929497;" d="M59,10c0,0,0-1,0-2s1-2,2-2s2,1,2,2s1,2,1,2H59z"/>
		<path style="fill:#6D6E70;" d="M61,6c1,0,2,1,2,2s1,2,1,2h-5c0,0,0-1,0-2S60,6,61,6 M61,5c-1.542,0-3,1.458-3,3v2
			c0,0.552,0.448,1,1,1h5c0.404,0,0.769-0.244,0.924-0.617c0.155-0.374,0.069-0.804-0.217-1.09C64.424,9.005,64,8.392,64,8
			C64,6.458,62.542,5,61,5L61,5z"/>
	</g>
</g>
</svg>
