<?xml version="1.0" encoding="iso-8859-1"?>
<!-- Generator: Adobe Illustrator 17.0.0, SVG Export Plug-In . SVG Version: 6.00 Build 0)  -->
<!DOCTYPE svg PUBLIC "-//W3C//DTD SVG 1.1//EN" "http://www.w3.org/Graphics/SVG/1.1/DTD/svg11.dtd">
<svg version="1.1" id="Layer_1" xmlns="http://www.w3.org/2000/svg" xmlns:xlink="http://www.w3.org/1999/xlink" x="0px" y="0px"
	 width="132px" height="44px" viewBox="0 0 132 44" style="enable-background:new 0 0 132 44;" xml:space="preserve">
<g>
	<g>
		<polygon style="fill:#FFFFFF;" points="127,35 19,35 3,32 2,30 3,24 3,13 18,12 40,12 90,12 92.004,10.121 98,13 123,16 127,18 
			129,21 130,25 130,32 		"/>
		<path style="fill:#6D6E70;" d="M92.004,10.121L98,13l25,3l4,2l2,3l1,4v7l-3,3H19L3,32l-1-2l1-6V13l15-1h22h50L92.004,10.121
			 M92.004,8.121c-0.498,0-0.99,0.186-1.368,0.541L89.209,10H40H18c-0.044,0-0.089,0.001-0.133,0.004l-15,1
			C1.816,11.074,1,11.947,1,13v10.834l-0.973,5.837c-0.07,0.417-0.005,0.845,0.184,1.223l1,2c0.28,0.56,0.805,0.956,1.42,1.071l16,3
			C18.753,36.989,18.876,37,19,37h108c0.53,0,1.039-0.211,1.414-0.586l3-3C131.789,33.039,132,32.53,132,32v-7
			c0-0.164-0.02-0.326-0.06-0.485l-1-4c-0.056-0.222-0.149-0.434-0.276-0.624l-2-3c-0.193-0.29-0.458-0.524-0.77-0.679l-4-2
			c-0.206-0.103-0.428-0.169-0.656-0.197l-24.671-2.961L92.87,8.318C92.594,8.186,92.298,8.121,92.004,8.121L92.004,8.121z"/>
	</g>
	<g>
		<path style="fill:#929497;" d="M39.81,36c0.12-0.65,0.19-1.316,0.19-2c0-6.074-4.926-11-11-11c-6.074,0-11,4.926-11,11
			c0,0.684,0.07,1.35,0.19,2H39.81z"/>
		<path style="fill:#6D6E70;" d="M29,23c6.074,0,11,4.926,11,11c0,0.684-0.07,1.35-0.19,2H18.19C18.07,35.35,18,34.684,18,34
			C18,27.926,22.926,23,29,23 M29,22c-6.617,0-12,5.383-12,12c0,0.713,0.068,1.427,0.207,2.182C17.295,36.656,17.708,37,18.19,37
			H39.81c0.482,0,0.896-0.344,0.983-0.818C40.932,35.427,41,34.714,41,34C41,27.383,35.617,22,29,22L29,22z"/>
	</g>
	<g>
		<g>
			<circle style="fill:#D0D2D3;" cx="29" cy="34" r="8"/>
			<path style="fill:#6D6E70;" d="M29,26c4.418,0,8,3.582,8,8s-3.582,8-8,8s-8-3.582-8-8S24.582,26,29,26 M29,24
				c-5.514,0-10,4.486-10,10s4.486,10,10,10s10-4.486,10-10S34.514,24,29,24L29,24z"/>
		</g>
		<g>
			<circle style="fill:#FFFFFF;" cx="29" cy="34" r="4"/>
			<path style="fill:#6D6E70;" d="M29,30c2.209,0,4,1.791,4,4s-1.791,4-4,4s-4-1.791-4-4S26.791,30,29,30 M29,29
				c-2.757,0-5,2.243-5,5s2.243,5,5,5s5-2.243,5-5S31.757,29,29,29L29,29z"/>
		</g>
		<g>
			<circle style="fill:#929497;" cx="29" cy="34" r="1"/>
			<path style="fill:#BBBDBF;" d="M29,33c0.553,0,1,0.447,1,1s-0.447,1-1,1c-0.553,0-1-0.447-1-1S28.447,33,29,33 M29,32
				c-1.103,0-2,0.897-2,2s0.897,2,2,2s2-0.897,2-2S30.103,32,29,32L29,32z"/>
		</g>
	</g>
	<g>
		<path style="fill:#929497;" d="M119.81,36c0.12-0.65,0.19-1.316,0.19-2c0-6.074-4.926-11-11-11c-6.074,0-11,4.926-11,11
			c0,0.684,0.07,1.35,0.19,2H119.81z"/>
		<path style="fill:#6D6E70;" d="M109,23c6.074,0,11,4.926,11,11c0,0.684-0.07,1.35-0.19,2H98.19C98.07,35.35,98,34.684,98,34
			C98,27.926,102.926,23,109,23 M109,22c-6.617,0-12,5.383-12,12c0,0.713,0.068,1.427,0.207,2.182C97.295,36.656,97.708,37,98.19,37
			h21.619c0.482,0,0.896-0.344,0.983-0.818C120.932,35.427,121,34.714,121,34C121,27.383,115.617,22,109,22L109,22z"/>
	</g>
	<g>
		<g>
			<circle style="fill:#D0D2D3;" cx="109" cy="34" r="8"/>
			<path style="fill:#6D6E70;" d="M109,26c4.418,0,8,3.582,8,8s-3.582,8-8,8s-8-3.582-8-8S104.582,26,109,26 M109,24
				c-5.514,0-10,4.486-10,10s4.486,10,10,10s10-4.486,10-10S114.514,24,109,24L109,24z"/>
		</g>
		<g>
			<circle style="fill:#FFFFFF;" cx="109" cy="34" r="4"/>
			<path style="fill:#6D6E70;" d="M109,30c2.209,0,4,1.791,4,4s-1.791,4-4,4s-4-1.791-4-4S106.791,30,109,30 M109,29
				c-2.757,0-5,2.243-5,5s2.243,5,5,5s5-2.243,5-5S111.757,29,109,29L109,29z"/>
		</g>
		<g>
			<circle style="fill:#929497;" cx="109" cy="34" r="1"/>
			<path style="fill:#BBBDBF;" d="M109,33c0.553,0,1,0.447,1,1s-0.447,1-1,1c-0.553,0-1-0.447-1-1S108.447,33,109,33 M109,32
				c-1.103,0-2,0.897-2,2s0.897,2,2,2s2-0.897,2-2S110.103,32,109,32L109,32z"/>
		</g>
	</g>
	<g>
		<polygon style="fill:#E6E7E8;" points="121,19 121,21 127,24 130,24 129,21 128,19 		"/>
		<path style="fill:#6D6E70;" d="M128,19l1,2l1,3h-3l-6-3v-2H128 M128,18h-7c-0.552,0-1,0.448-1,1v2
			c0,0.379,0.214,0.725,0.553,0.894l6,3C126.692,24.964,126.845,25,127,25h3c0.321,0,0.623-0.155,0.811-0.415
			c0.188-0.261,0.239-0.596,0.137-0.901l-1-3c-0.015-0.045-0.033-0.089-0.054-0.131l-1-2C128.725,18.214,128.379,18,128,18L128,18z"
			/>
	</g>
	<g>
		<polygon style="fill:#E6E7E8;" points="3,16 9,16 9,19 7,21 3,21 		"/>
		<path style="fill:#6D6E70;" d="M9,16v3l-2,2H3v-5H9 M9,15H3c-0.552,0-1,0.448-1,1v5c0,0.552,0.448,1,1,1h4
			c0.265,0,0.52-0.105,0.707-0.293l2-2C9.895,19.52,10,19.265,10,19v-3C10,15.448,9.552,15,9,15L9,15z"/>
	</g>
	<rect x="54" y="12" style="fill:#6D6E70;" width="1" height="23"/>
	<g>
		<rect x="94" y="15" style="fill:#6D6E70;" width="1" height="11"/>
		<polygon style="fill:#6D6E70;" points="95,15 94,15 92,10 93,10 		"/>
		<polygon style="fill:#6D6E70;" points="93,35 92,35 94,26 95,26 		"/>
	</g>
	<g>
		<rect x="59" y="16" style="fill:#A6A8AB;" width="3" height="1"/>
		<path style="fill:#6D6E70;" d="M62,16v1h-3v-1H62 M62,15h-3c-0.552,0-1,0.448-1,1v1c0,0.552,0.448,1,1,1h3c0.552,0,1-0.448,1-1v-1
			C63,15.448,62.552,15,62,15L62,15z"/>
	</g>
	<g>
		<polygon style="fill:#BBBDBF;" points="75,1 77,1 94,10 90,10 		"/>
		<path style="fill:#6D6E70;" d="M77,1l17,9h-4L75,1H77 M77,0h-2c-0.449,0-0.844,0.3-0.964,0.733
			c-0.12,0.433,0.064,0.893,0.449,1.124l15,9C89.641,10.951,89.819,11,90,11h4c0.459,0,0.86-0.313,0.971-0.759
			c0.111-0.446-0.097-0.91-0.503-1.125l-17-9C77.324,0.04,77.163,0,77,0L77,0z"/>
	</g>
	<g>
		<polygon style="fill:#FFFFFF;" points="85,9 87,9 88,11 88,13 85,13 		"/>
		<path style="fill:#6D6E70;" d="M87,9l1,2v2h-3V9H87 M87,8h-2c-0.552,0-1,0.448-1,1v4c0,0.552,0.448,1,1,1h3c0.552,0,1-0.448,1-1
			v-2c0-0.155-0.036-0.308-0.106-0.447l-1-2C87.725,8.214,87.379,8,87,8L87,8z"/>
	</g>
	<g>
		<path style="fill:#929497;" d="M56,10c0,0,0-1,0-2s1-2,2-2s2,1,2,2s1,2,1,2H56z"/>
		<path style="fill:#6D6E70;" d="M58,6c1,0,2,1,2,2s1,2,1,2h-5c0,0,0-1,0-2S57,6,58,6 M58,5c-1.542,0-3,1.458-3,3v2
			c0,0.552,0.448,1,1,1h5c0.404,0,0.769-0.244,0.924-0.617c0.155-0.374,0.069-0.804-0.217-1.09C61.424,9.005,61,8.392,61,8
			C61,6.458,59.542,5,58,5L58,5z"/>
	</g>
	<g>
		<path style="fill:#929497;" d="M29,10c0,0,0-1,0-2s1-2,2-2s2,1,2,2s1,2,1,2H29z"/>
		<path style="fill:#6D6E70;" d="M31,6c1,0,2,1,2,2s1,2,1,2h-5c0,0,0-1,0-2S30,6,31,6 M31,5c-1.542,0-3,1.458-3,3v2
			c0,0.552,0.448,1,1,1h5c0.404,0,0.769-0.244,0.924-0.617c0.155-0.374,0.069-0.804-0.217-1.09C34.424,9.005,34,8.392,34,8
			C34,6.458,32.542,5,31,5L31,5z"/>
	</g>
</g>
</svg>
