<?xml version="1.0" encoding="iso-8859-1"?>
<!-- Generator: Adobe Illustrator 17.0.0, SVG Export Plug-In . SVG Version: 6.00 Build 0)  -->
<!DOCTYPE svg PUBLIC "-//W3C//DTD SVG 1.1//EN" "http://www.w3.org/Graphics/SVG/1.1/DTD/svg11.dtd">
<svg version="1.1" id="Layer_1" xmlns="http://www.w3.org/2000/svg" xmlns:xlink="http://www.w3.org/1999/xlink" x="0px" y="0px"
	 width="135px" height="45px" viewBox="0 0 135 45" style="enable-background:new 0 0 135 45;" xml:space="preserve">
<g>
	<g>
		<polygon style="fill:#FFFFFF;" points="126,36 24,36 8,33 7,31 8,25 8,16 26,13 42,3 45,2 72,2 97,14 122,17 126,19 128,22 
			129,26 129,33 		"/>
		<path style="fill:#6D6E70;" d="M72,2l25,12l25,3l4,2l2,3l1,4v7l-3,3H24L8,33l-1-2l1-6v-9l18-3L42,3l3-1H72 M72,0H45
			c-0.215,0-0.429,0.035-0.632,0.103l-3,1c-0.15,0.05-0.293,0.118-0.428,0.201l-15.662,9.789L7.671,14.027
			C6.707,14.188,6,15.022,6,16v8.835l-0.973,5.837c-0.069,0.417-0.005,0.845,0.184,1.223l1,2c0.28,0.56,0.805,0.956,1.42,1.071l16,3
			C23.753,37.989,23.876,38,24,38h102c0.53,0,1.039-0.211,1.414-0.586l3-3C130.789,34.039,131,33.53,131,33v-7
			c0-0.164-0.02-0.326-0.06-0.485l-1-4c-0.056-0.222-0.149-0.434-0.276-0.624l-2-3c-0.193-0.29-0.458-0.524-0.77-0.68l-4-2
			c-0.206-0.103-0.428-0.169-0.656-0.197l-24.671-2.961L72.865,0.197C72.595,0.067,72.3,0,72,0L72,0z"/>
	</g>
	<g>
		<path style="fill:#929497;" d="M44.81,37c0.12-0.65,0.19-1.316,0.19-2c0-6.074-4.926-11-11-11c-6.074,0-11,4.926-11,11
			c0,0.684,0.07,1.35,0.19,2H44.81z"/>
		<path style="fill:#6D6E70;" d="M34,24c6.074,0,11,4.926,11,11c0,0.684-0.07,1.35-0.19,2H23.19C23.07,36.35,23,35.684,23,35
			C23,28.926,27.926,24,34,24 M34,23c-6.617,0-12,5.383-12,12c0,0.714,0.068,1.427,0.207,2.182C22.295,37.656,22.708,38,23.19,38
			H44.81c0.482,0,0.896-0.344,0.983-0.818C45.932,36.427,46,35.714,46,35C46,28.383,40.617,23,34,23L34,23z"/>
	</g>
	<g>
		<g>
			<circle style="fill:#D0D2D3;" cx="34" cy="35" r="8"/>
			<path style="fill:#6D6E70;" d="M34,27c4.418,0,8,3.582,8,8s-3.582,8-8,8s-8-3.582-8-8S29.582,27,34,27 M34,25
				c-5.514,0-10,4.486-10,10s4.486,10,10,10s10-4.486,10-10S39.514,25,34,25L34,25z"/>
		</g>
		<g>
			<circle style="fill:#FFFFFF;" cx="34" cy="35" r="4"/>
			<path style="fill:#6D6E70;" d="M34,31c2.209,0,4,1.791,4,4s-1.791,4-4,4s-4-1.791-4-4S31.791,31,34,31 M34,30
				c-2.757,0-5,2.243-5,5s2.243,5,5,5s5-2.243,5-5S36.757,30,34,30L34,30z"/>
		</g>
		<g>
			<circle style="fill:#929497;" cx="34" cy="35" r="1"/>
			<path style="fill:#BBBDBF;" d="M34,34c0.553,0,1,0.447,1,1s-0.447,1-1,1s-1-0.447-1-1S33.447,34,34,34 M34,33
				c-1.103,0-2,0.897-2,2s0.897,2,2,2s2-0.897,2-2S35.103,33,34,33L34,33z"/>
		</g>
	</g>
	<g>
		<path style="fill:#929497;" d="M118.81,37c0.12-0.65,0.19-1.316,0.19-2c0-6.074-4.926-11-11-11c-6.074,0-11,4.926-11,11
			c0,0.684,0.07,1.35,0.19,2H118.81z"/>
		<path style="fill:#6D6E70;" d="M108,24c6.074,0,11,4.926,11,11c0,0.684-0.07,1.35-0.19,2H97.19C97.07,36.35,97,35.684,97,35
			C97,28.926,101.926,24,108,24 M108,23c-6.617,0-12,5.383-12,12c0,0.714,0.068,1.427,0.207,2.182C96.295,37.656,96.708,38,97.19,38
			h21.619c0.482,0,0.896-0.344,0.983-0.818C119.932,36.427,120,35.714,120,35C120,28.383,114.617,23,108,23L108,23z"/>
	</g>
	<g>
		<g>
			<circle style="fill:#D0D2D3;" cx="108" cy="35" r="8"/>
			<path style="fill:#6D6E70;" d="M108,27c4.418,0,8,3.582,8,8s-3.582,8-8,8s-8-3.582-8-8S103.582,27,108,27 M108,25
				c-5.514,0-10,4.486-10,10s4.486,10,10,10s10-4.486,10-10S113.514,25,108,25L108,25z"/>
		</g>
		<g>
			<circle style="fill:#FFFFFF;" cx="108" cy="35" r="4"/>
			<path style="fill:#6D6E70;" d="M108,31c2.209,0,4,1.791,4,4s-1.791,4-4,4s-4-1.791-4-4S105.791,31,108,31 M108,30
				c-2.757,0-5,2.243-5,5s2.243,5,5,5s5-2.243,5-5S110.757,30,108,30L108,30z"/>
		</g>
		<g>
			<circle style="fill:#929497;" cx="108" cy="35" r="1"/>
			<path style="fill:#BBBDBF;" d="M108,34c0.553,0,1,0.447,1,1s-0.447,1-1,1s-1-0.447-1-1S107.447,34,108,34 M108,33
				c-1.103,0-2,0.897-2,2s0.897,2,2,2s2-0.897,2-2S109.103,33,108,33L108,33z"/>
		</g>
	</g>
	<g>
		<polygon style="fill:#E6E7E8;" points="120,20 120,22 126,25 129,25 128,22 127,20 		"/>
		<path style="fill:#6D6E70;" d="M127,20l1,2l1,3h-3l-6-3v-2H127 M127,19h-7c-0.552,0-1,0.448-1,1v2
			c0,0.379,0.214,0.725,0.553,0.894l6,3C125.692,25.964,125.845,26,126,26h3c0.321,0,0.623-0.155,0.811-0.415
			c0.188-0.261,0.239-0.596,0.137-0.901l-1-3c-0.015-0.045-0.033-0.089-0.054-0.131l-1-2C127.725,19.214,127.379,19,127,19L127,19z"
			/>
	</g>
	<g>
		<polygon style="fill:#E6E7E8;" points="8,19 14,19 14,21 12,23 8,24 		"/>
		<path style="fill:#6D6E70;" d="M14,19v2l-2,2l-4,1v-5H14 M14,18H8c-0.552,0-1,0.448-1,1v5c0,0.308,0.142,0.599,0.385,0.788
			C7.562,24.927,7.779,25,8,25c0.081,0,0.162-0.01,0.243-0.03l4-1c0.176-0.044,0.336-0.135,0.465-0.263l2-2
			C14.895,21.52,15,21.265,15,21v-2C15,18.448,14.552,18,14,18L14,18z"/>
	</g>
	<rect x="52" y="2" style="fill:#6D6E70;" width="1" height="34"/>
	<g>
		<polygon style="fill:#BBBDBF;" points="56,13 56,5 71,5 86,12 86,13 		"/>
		<path style="fill:#6D6E70;" d="M71,5l15,7v1H56V5H71 M71,4H56c-0.552,0-1,0.448-1,1v8c0,0.552,0.448,1,1,1h30c0.552,0,1-0.448,1-1
			v-1c0-0.389-0.225-0.742-0.577-0.906l-15-7C71.29,4.032,71.146,4,71,4L71,4z"/>
	</g>
	<g>
		<polygon style="fill:#FFFFFF;" points="83,10 85,10 86,12 86,14 83,14 		"/>
		<path style="fill:#6D6E70;" d="M85,10l1,2v2h-3v-4H85 M85,9h-2c-0.552,0-1,0.448-1,1v4c0,0.552,0.448,1,1,1h3c0.552,0,1-0.448,1-1
			v-2c0-0.155-0.036-0.308-0.106-0.447l-1-2C85.725,9.214,85.379,9,85,9L85,9z"/>
	</g>
	<g>
		<polygon style="fill:#BBBDBF;" points="49,13 49,5 46,5 44,6 37,12 37,13 		"/>
		<path style="fill:#6D6E70;" d="M49,5v8H37v-1l7-6l2-1H49 M49,4h-3c-0.155,0-0.308,0.036-0.447,0.106l-2,1
			c-0.073,0.037-0.142,0.082-0.204,0.135l-7,6C36.128,11.431,36,11.708,36,12v1c0,0.552,0.448,1,1,1h12c0.552,0,1-0.448,1-1V5
			C50,4.448,49.552,4,49,4L49,4z"/>
	</g>
	<g>
		<rect x="93" y="16" style="fill:#6D6E70;" width="1" height="11"/>
		<polygon style="fill:#6D6E70;" points="94,16 93,16 91,11 92,11 		"/>
		<polygon style="fill:#6D6E70;" points="92,36 91,36 93,27 94,27 		"/>
	</g>
	<g>
		<rect x="56" y="17" style="fill:#A6A8AB;" width="3" height="1"/>
		<path style="fill:#6D6E70;" d="M59,17v1h-3v-1H59 M59,16h-3c-0.552,0-1,0.448-1,1v1c0,0.552,0.448,1,1,1h3c0.552,0,1-0.448,1-1v-1
			C60,16.448,59.552,16,59,16L59,16z"/>
	</g>
</g>
</svg>
