<?xml version="1.0" encoding="iso-8859-1"?>
<!-- Generator: Adobe Illustrator 17.0.0, SVG Export Plug-In . SVG Version: 6.00 Build 0)  -->
<!DOCTYPE svg PUBLIC "-//W3C//DTD SVG 1.1//EN" "http://www.w3.org/Graphics/SVG/1.1/DTD/svg11.dtd">
<svg version="1.1" id="Layer_1" xmlns="http://www.w3.org/2000/svg" xmlns:xlink="http://www.w3.org/1999/xlink" x="0px" y="0px"
	 width="126px" height="45px" viewBox="0 0 126 45" style="enable-background:new 0 0 126 45;" xml:space="preserve">
<g>
	<g>
		<polygon style="fill:#FFFFFF;" points="121,36 10,36 3,33 2,31 3,25 3,14 17,4 21,2 67,2 92,14 117,17 121,19 123,22 124,26 
			124,33 		"/>
		<path style="fill:#6D6E70;" d="M67,2l25,12l25,3l4,2l2,3l1,4v7l-3,3H10l-7-3l-1-2l1-6V14L17,4l4-2H67 M67,0H21
			c-0.31,0-0.617,0.072-0.894,0.211l-4,2c-0.093,0.047-0.183,0.101-0.268,0.161l-14,10C1.312,12.748,1,13.354,1,14v10.834
			l-0.973,5.837c-0.069,0.417-0.005,0.845,0.184,1.223l1,2c0.212,0.423,0.566,0.758,1.001,0.944l7,3C9.461,37.945,9.729,38,10,38
			h111c0.53,0,1.039-0.211,1.414-0.586l3-3C125.789,34.039,126,33.53,126,33v-7c0-0.164-0.02-0.326-0.06-0.485l-1-4
			c-0.056-0.222-0.149-0.434-0.276-0.624l-2-3c-0.193-0.29-0.458-0.524-0.77-0.679l-4-2c-0.206-0.103-0.428-0.17-0.656-0.197
			l-24.671-2.961L67.865,0.197C67.595,0.067,67.3,0,67,0L67,0z"/>
	</g>
	<g>
		<path style="fill:#929497;" d="M30.81,37c0.12-0.65,0.19-1.316,0.19-2c0-6.074-4.926-11-11-11c-6.074,0-11,4.926-11,11
			c0,0.684,0.07,1.35,0.19,2H30.81z"/>
		<path style="fill:#6D6E70;" d="M20,24c6.074,0,11,4.926,11,11c0,0.684-0.07,1.35-0.19,2H9.19C9.07,36.35,9,35.684,9,35
			C9,28.926,13.926,24,20,24 M20,23c-6.617,0-12,5.383-12,12c0,0.714,0.068,1.427,0.207,2.182C8.295,37.656,8.708,38,9.19,38H30.81
			c0.482,0,0.896-0.344,0.983-0.818C31.932,36.427,32,35.714,32,35C32,28.383,26.617,23,20,23L20,23z"/>
	</g>
	<g>
		<g>
			<circle style="fill:#D0D2D3;" cx="20" cy="35" r="8"/>
			<path style="fill:#6D6E70;" d="M20,27c4.418,0,8,3.582,8,8s-3.582,8-8,8s-8-3.582-8-8S15.582,27,20,27 M20,25
				c-5.514,0-10,4.486-10,10s4.486,10,10,10s10-4.486,10-10S25.514,25,20,25L20,25z"/>
		</g>
		<g>
			<circle style="fill:#FFFFFF;" cx="20" cy="35" r="4"/>
			<path style="fill:#6D6E70;" d="M20,31c2.209,0,4,1.791,4,4s-1.791,4-4,4s-4-1.791-4-4S17.791,31,20,31 M20,30
				c-2.757,0-5,2.243-5,5s2.243,5,5,5s5-2.243,5-5S22.757,30,20,30L20,30z"/>
		</g>
		<g>
			<circle style="fill:#929497;" cx="20" cy="35" r="1"/>
			<path style="fill:#BBBDBF;" d="M20,34c0.553,0,1,0.447,1,1s-0.447,1-1,1s-1-0.447-1-1S19.447,34,20,34 M20,33
				c-1.103,0-2,0.897-2,2s0.897,2,2,2s2-0.897,2-2S21.103,33,20,33L20,33z"/>
		</g>
	</g>
	<g>
		<path style="fill:#929497;" d="M113.81,37c0.12-0.65,0.19-1.316,0.19-2c0-6.074-4.926-11-11-11c-6.074,0-11,4.926-11,11
			c0,0.684,0.07,1.35,0.19,2H113.81z"/>
		<path style="fill:#6D6E70;" d="M103,24c6.074,0,11,4.926,11,11c0,0.684-0.07,1.35-0.19,2H92.19C92.07,36.35,92,35.684,92,35
			C92,28.926,96.926,24,103,24 M103,23c-6.617,0-12,5.383-12,12c0,0.714,0.068,1.427,0.207,2.182C91.295,37.656,91.708,38,92.19,38
			h21.619c0.482,0,0.896-0.344,0.983-0.818C114.932,36.427,115,35.714,115,35C115,28.383,109.617,23,103,23L103,23z"/>
	</g>
	<g>
		<g>
			<circle style="fill:#D0D2D3;" cx="103" cy="35" r="8"/>
			<path style="fill:#6D6E70;" d="M103,27c4.418,0,8,3.582,8,8s-3.582,8-8,8s-8-3.582-8-8S98.582,27,103,27 M103,25
				c-5.514,0-10,4.486-10,10s4.486,10,10,10s10-4.486,10-10S108.514,25,103,25L103,25z"/>
		</g>
		<g>
			<circle style="fill:#FFFFFF;" cx="103" cy="35" r="4"/>
			<path style="fill:#6D6E70;" d="M103,31c2.209,0,4,1.791,4,4s-1.791,4-4,4s-4-1.791-4-4S100.791,31,103,31 M103,30
				c-2.757,0-5,2.243-5,5s2.243,5,5,5s5-2.243,5-5S105.757,30,103,30L103,30z"/>
		</g>
		<g>
			<circle style="fill:#929497;" cx="103" cy="35" r="1"/>
			<path style="fill:#BBBDBF;" d="M103,34c0.553,0,1,0.447,1,1s-0.447,1-1,1s-1-0.447-1-1S102.447,34,103,34 M103,33
				c-1.103,0-2,0.897-2,2s0.897,2,2,2s2-0.897,2-2S104.103,33,103,33L103,33z"/>
		</g>
	</g>
	<g>
		<polygon style="fill:#E6E7E8;" points="115,20 115,22 121,25 124,25 123,22 122,20 		"/>
		<path style="fill:#6D6E70;" d="M122,20l1,2l1,3h-3l-6-3v-2H122 M122,19h-7c-0.552,0-1,0.448-1,1v2
			c0,0.379,0.214,0.725,0.553,0.894l6,3C120.692,25.964,120.845,26,121,26h3c0.321,0,0.623-0.155,0.811-0.415
			c0.188-0.261,0.239-0.596,0.137-0.901l-1-3c-0.015-0.045-0.033-0.089-0.054-0.131l-1-2C122.725,19.214,122.379,19,122,19L122,19z"
			/>
	</g>
	<g>
		<polygon style="fill:#E6E7E8;" points="3,18 9,18 9,21 7,23 3,23 		"/>
		<path style="fill:#6D6E70;" d="M9,18v3l-2,2H3v-5H9 M9,17H3c-0.552,0-1,0.448-1,1v5c0,0.552,0.448,1,1,1h4
			c0.265,0,0.52-0.105,0.707-0.293l2-2C9.895,21.52,10,21.265,10,21v-3C10,17.448,9.552,17,9,17L9,17z"/>
	</g>
	<rect x="53" y="2" style="fill:#6D6E70;" width="1" height="34"/>
	<g>
		<polygon style="fill:#BBBDBF;" points="57,13 57,5 66,5 81,12 81,13 		"/>
		<path style="fill:#6D6E70;" d="M66,5l15,7v1H57V5H66 M66,4h-9c-0.552,0-1,0.448-1,1v8c0,0.552,0.448,1,1,1h24c0.552,0,1-0.448,1-1
			v-1c0-0.389-0.225-0.742-0.577-0.906l-15-7C66.29,4.032,66.146,4,66,4L66,4z"/>
	</g>
	<g>
		<polygon style="fill:#FFFFFF;" points="78,10 80,10 81,12 81,14 78,14 		"/>
		<path style="fill:#6D6E70;" d="M80,10l1,2v2h-3v-4H80 M80,9h-2c-0.552,0-1,0.448-1,1v4c0,0.552,0.448,1,1,1h3c0.552,0,1-0.448,1-1
			v-2c0-0.155-0.036-0.308-0.106-0.447l-1-2C80.725,9.214,80.379,9,80,9L80,9z"/>
	</g>
	<g>
		<rect x="31" y="5" style="fill:#BBBDBF;" width="19" height="8"/>
		<path style="fill:#6D6E70;" d="M50,5v8H31V5H50 M50,4H31c-0.552,0-1,0.448-1,1v8c0,0.552,0.448,1,1,1h19c0.552,0,1-0.448,1-1V5
			C51,4.448,50.552,4,50,4L50,4z"/>
	</g>
	<g>
		<polygon style="fill:#BBBDBF;" points="24,13 24,5 12,13 		"/>
		<path style="fill:#6D6E70;" d="M24,5v8H12L24,5 M24,4c-0.194,0-0.387,0.056-0.555,0.168l-12,8c-0.367,0.244-0.53,0.7-0.402,1.122
			C11.171,13.712,11.559,14,12,14h12c0.552,0,1-0.448,1-1V5c0-0.369-0.203-0.708-0.528-0.882C24.324,4.039,24.162,4,24,4L24,4z"/>
	</g>
	<g>
		<rect x="88" y="16" style="fill:#6D6E70;" width="1" height="11"/>
		<polygon style="fill:#6D6E70;" points="89,16 88,16 86,11 87,11 		"/>
		<polygon style="fill:#6D6E70;" points="87,36 86,36 88,27 89,27 		"/>
	</g>
	<g>
		<rect x="57" y="17" style="fill:#A6A8AB;" width="3" height="1"/>
		<path style="fill:#6D6E70;" d="M60,17v1h-3v-1H60 M60,16h-3c-0.552,0-1,0.448-1,1v1c0,0.552,0.448,1,1,1h3c0.552,0,1-0.448,1-1v-1
			C61,16.448,60.552,16,60,16L60,16z"/>
	</g>
	<g>
		<rect x="31" y="17" style="fill:#A6A8AB;" width="3" height="1"/>
		<path style="fill:#6D6E70;" d="M34,17v1h-3v-1H34 M34,16h-3c-0.552,0-1,0.448-1,1v1c0,0.552,0.448,1,1,1h3c0.552,0,1-0.448,1-1v-1
			C35,16.448,34.552,16,34,16L34,16z"/>
	</g>
	<rect x="27" y="2" style="fill:#6D6E70;" width="1" height="20"/>
	<polygon style="fill:#6D6E70;" points="30,25 29,25 27,22 28,22 	"/>
</g>
</svg>
