<?xml version="1.0" encoding="iso-8859-1"?>
<!-- Generator: Adobe Illustrator 17.0.0, SVG Export Plug-In . SVG Version: 6.00 Build 0)  -->
<!DOCTYPE svg PUBLIC "-//W3C//DTD SVG 1.1//EN" "http://www.w3.org/Graphics/SVG/1.1/DTD/svg11.dtd">
<svg version="1.1" id="Layer_1" xmlns="http://www.w3.org/2000/svg" xmlns:xlink="http://www.w3.org/1999/xlink" x="0px" y="0px"
	 width="135px" height="45px" viewBox="0 0 135 45" style="enable-background:new 0 0 135 45;" xml:space="preserve">
<g>
	<g>
		<polygon style="fill:#FFFFFF;" points="121,36 19,36 13,33 12,31 13,25 13,14 24,4 28,2 67,2 92,14 117,17 121,19 123,22 124,26 
			124,33 		"/>
		<path style="fill:#6D6E70;" d="M67,2l25,12l25,3l4,2l2,3l1,4v7l-3,3H19l-6-3l-1-2l1-6V14L24,4l4-2H67 M67,0H28
			c-0.31,0-0.617,0.072-0.894,0.211l-4,2c-0.164,0.082-0.315,0.186-0.451,0.309l-11,10C11.238,12.899,11,13.437,11,14v10.834
			l-0.973,5.837c-0.07,0.417-0.005,0.845,0.184,1.223l1,2c0.194,0.387,0.507,0.701,0.894,0.894l6,3C18.383,37.928,18.69,38,19,38
			h102c0.53,0,1.039-0.211,1.414-0.586l3-3C125.789,34.039,126,33.53,126,33v-7c0-0.164-0.02-0.326-0.06-0.485l-1-4
			c-0.056-0.222-0.149-0.434-0.276-0.624l-2-3c-0.193-0.29-0.458-0.524-0.77-0.679l-4-2c-0.206-0.103-0.428-0.17-0.656-0.197
			l-24.671-2.961L67.865,0.197C67.595,0.067,67.3,0,67,0L67,0z"/>
	</g>
	<g>
		<path style="fill:#929497;" d="M40.81,37c0.12-0.65,0.19-1.316,0.19-2c0-6.074-4.926-11-11-11c-6.074,0-11,4.926-11,11
			c0,0.684,0.07,1.35,0.19,2H40.81z"/>
		<path style="fill:#6D6E70;" d="M30,24c6.074,0,11,4.926,11,11c0,0.684-0.07,1.35-0.19,2H19.19C19.07,36.35,19,35.684,19,35
			C19,28.926,23.926,24,30,24 M30,23c-6.617,0-12,5.383-12,12c0,0.714,0.068,1.427,0.207,2.182C18.295,37.656,18.708,38,19.19,38
			H40.81c0.482,0,0.896-0.344,0.983-0.818C41.932,36.427,42,35.714,42,35C42,28.383,36.617,23,30,23L30,23z"/>
	</g>
	<g>
		<g>
			<circle style="fill:#D0D2D3;" cx="30" cy="35" r="8"/>
			<path style="fill:#6D6E70;" d="M30,27c4.418,0,8,3.582,8,8s-3.582,8-8,8s-8-3.582-8-8S25.582,27,30,27 M30,25
				c-5.514,0-10,4.486-10,10s4.486,10,10,10s10-4.486,10-10S35.514,25,30,25L30,25z"/>
		</g>
		<g>
			<circle style="fill:#FFFFFF;" cx="30" cy="35" r="4"/>
			<path style="fill:#6D6E70;" d="M30,31c2.209,0,4,1.791,4,4s-1.791,4-4,4s-4-1.791-4-4S27.791,31,30,31 M30,30
				c-2.757,0-5,2.243-5,5s2.243,5,5,5s5-2.243,5-5S32.757,30,30,30L30,30z"/>
		</g>
		<g>
			<circle style="fill:#929497;" cx="30" cy="35" r="1"/>
			<path style="fill:#BBBDBF;" d="M30,34c0.553,0,1,0.447,1,1s-0.447,1-1,1c-0.553,0-1-0.447-1-1S29.447,34,30,34 M30,33
				c-1.103,0-2,0.897-2,2s0.897,2,2,2s2-0.897,2-2S31.103,33,30,33L30,33z"/>
		</g>
	</g>
	<g>
		<path style="fill:#929497;" d="M113.81,37c0.12-0.65,0.19-1.316,0.19-2c0-6.074-4.926-11-11-11c-6.074,0-11,4.926-11,11
			c0,0.684,0.07,1.35,0.19,2H113.81z"/>
		<path style="fill:#6D6E70;" d="M103,24c6.074,0,11,4.926,11,11c0,0.684-0.07,1.35-0.19,2H92.19C92.07,36.35,92,35.684,92,35
			C92,28.926,96.926,24,103,24 M103,23c-6.617,0-12,5.383-12,12c0,0.714,0.068,1.427,0.207,2.182C91.295,37.656,91.708,38,92.19,38
			h21.619c0.482,0,0.896-0.344,0.983-0.818C114.932,36.427,115,35.714,115,35C115,28.383,109.617,23,103,23L103,23z"/>
	</g>
	<g>
		<g>
			<circle style="fill:#D0D2D3;" cx="103" cy="35" r="8"/>
			<path style="fill:#6D6E70;" d="M103,27c4.418,0,8,3.582,8,8s-3.582,8-8,8s-8-3.582-8-8S98.582,27,103,27 M103,25
				c-5.514,0-10,4.486-10,10s4.486,10,10,10s10-4.486,10-10S108.514,25,103,25L103,25z"/>
		</g>
		<g>
			<circle style="fill:#FFFFFF;" cx="103" cy="35" r="4"/>
			<path style="fill:#6D6E70;" d="M103,31c2.209,0,4,1.791,4,4s-1.791,4-4,4s-4-1.791-4-4S100.791,31,103,31 M103,30
				c-2.757,0-5,2.243-5,5s2.243,5,5,5s5-2.243,5-5S105.757,30,103,30L103,30z"/>
		</g>
		<g>
			<circle style="fill:#929497;" cx="103" cy="35" r="1"/>
			<path style="fill:#BBBDBF;" d="M103,34c0.553,0,1,0.447,1,1s-0.447,1-1,1c-0.553,0-1-0.447-1-1S102.447,34,103,34 M103,33
				c-1.103,0-2,0.897-2,2s0.897,2,2,2s2-0.897,2-2S104.103,33,103,33L103,33z"/>
		</g>
	</g>
	<g>
		<polygon style="fill:#E6E7E8;" points="115,20 115,22 121,25 124,25 123,22 122,20 		"/>
		<path style="fill:#6D6E70;" d="M122,20l1,2l1,3h-3l-6-3v-2H122 M122,19h-7c-0.552,0-1,0.448-1,1v2
			c0,0.379,0.214,0.725,0.553,0.894l6,3C120.692,25.964,120.845,26,121,26h3c0.321,0,0.623-0.155,0.811-0.415
			c0.188-0.261,0.239-0.596,0.137-0.901l-1-3c-0.015-0.045-0.033-0.089-0.054-0.131l-1-2C122.725,19.214,122.379,19,122,19L122,19z"
			/>
	</g>
	<g>
		<polygon style="fill:#E6E7E8;" points="13,18 19,18 19,21 17,23 13,23 		"/>
		<path style="fill:#6D6E70;" d="M19,18v3l-2,2h-4v-5H19 M19,17h-6c-0.552,0-1,0.448-1,1v5c0,0.552,0.448,1,1,1h4
			c0.265,0,0.52-0.105,0.707-0.293l2-2C19.895,21.52,20,21.265,20,21v-3C20,17.448,19.552,17,19,17L19,17z"/>
	</g>
	<rect x="48" y="2" style="fill:#6D6E70;" width="1" height="34"/>
	<g>
		<polygon style="fill:#BBBDBF;" points="52,13 52,5 66,5 81,12 81,13 		"/>
		<path style="fill:#6D6E70;" d="M66,5l15,7v1H52V5H66 M66,4H52c-0.552,0-1,0.448-1,1v8c0,0.552,0.448,1,1,1h29c0.552,0,1-0.448,1-1
			v-1c0-0.389-0.225-0.742-0.577-0.906l-15-7C66.29,4.032,66.146,4,66,4L66,4z"/>
	</g>
	<g>
		<polygon style="fill:#FFFFFF;" points="78,10 80,10 81,12 81,14 78,14 		"/>
		<path style="fill:#6D6E70;" d="M80,10l1,2v2h-3v-4H80 M80,9h-2c-0.552,0-1,0.448-1,1v4c0,0.552,0.448,1,1,1h3c0.552,0,1-0.448,1-1
			v-2c0-0.155-0.036-0.308-0.106-0.447l-1-2C80.725,9.214,80.379,9,80,9L80,9z"/>
	</g>
	<g>
		<polygon style="fill:#BBBDBF;" points="45,13 45,5 31,5 22,13 		"/>
		<path style="fill:#6D6E70;" d="M45,5v8H22l9-8H45 M45,4H31c-0.245,0-0.481,0.09-0.664,0.253l-9,8
			c-0.31,0.276-0.418,0.715-0.27,1.103C21.213,13.743,21.585,14,22,14h23c0.552,0,1-0.448,1-1V5C46,4.448,45.552,4,45,4L45,4z"/>
	</g>
	<g>
		<rect x="88" y="16" style="fill:#6D6E70;" width="1" height="11"/>
		<polygon style="fill:#6D6E70;" points="89,16 88,16 86,11 87,11 		"/>
		<polygon style="fill:#6D6E70;" points="87,36 86,36 88,27 89,27 		"/>
	</g>
	<g>
		<rect x="52" y="17" style="fill:#A6A8AB;" width="3" height="1"/>
		<path style="fill:#6D6E70;" d="M55,17v1h-3v-1H55 M55,16h-3c-0.552,0-1,0.448-1,1v1c0,0.552,0.448,1,1,1h3c0.552,0,1-0.448,1-1v-1
			C56,16.448,55.552,16,55,16L55,16z"/>
	</g>
</g>
</svg>
