<?xml version="1.0" encoding="iso-8859-1"?>
<!-- Generator: Adobe Illustrator 17.0.0, SVG Export Plug-In . SVG Version: 6.00 Build 0)  -->
<!DOCTYPE svg PUBLIC "-//W3C//DTD SVG 1.1//EN" "http://www.w3.org/Graphics/SVG/1.1/DTD/svg11.dtd">
<svg version="1.1" id="Layer_1" xmlns="http://www.w3.org/2000/svg" xmlns:xlink="http://www.w3.org/1999/xlink" x="0px" y="0px"
	 width="139px" height="51px" viewBox="0 0 139 51" style="enable-background:new 0 0 139 51;" xml:space="preserve">
<g>
	<g>
		<polygon style="fill:#FFFFFF;" points="134,41 16,41 3,41 2,40 2,33 3,32 3,24 4,20 11,4 12,3 14,2 90,2 94,3 96,4 110,15 114,17 
			130,23 134,25 135,26 136,33 137,34 137,40 		"/>
		<path style="fill:#6D6E70;" d="M90,2l4,1l2,1l14,11l4,2l16,6l4,2l1,1l1,7l1,1v6l-3,1H16H3l-1-1v-7l1-1v-8l1-4l7-16l1-1l2-1H90
			 M90,0H14c-0.31,0-0.617,0.072-0.894,0.211l-2,1c-0.192,0.096-0.368,0.223-0.52,0.375l-1,1C9.409,2.762,9.268,2.97,9.168,3.198
			l-7,16c-0.045,0.102-0.081,0.208-0.108,0.317l-1,4C1.02,23.674,1,23.836,1,24v7.172l-0.414,0.414C0.211,31.961,0,32.47,0,33v7
			c0,0.53,0.211,1.039,0.586,1.414l1,1C1.961,42.789,2.47,43,3,43h13h118c0.215,0,0.429-0.035,0.632-0.103l3-1
			C138.449,41.625,139,40.861,139,40v-6c0-0.53-0.211-1.039-0.586-1.414l-0.529-0.529l-0.906-6.34
			c-0.061-0.428-0.26-0.825-0.566-1.131l-1-1c-0.152-0.152-0.328-0.278-0.52-0.375l-4-2c-0.063-0.031-0.127-0.059-0.192-0.084
			l-15.902-5.963l-3.725-1.862L97.236,2.427c-0.106-0.083-0.22-0.156-0.341-0.216l-2-1c-0.131-0.065-0.268-0.116-0.409-0.151l-4-1
			C90.326,0.02,90.164,0,90,0L90,0z"/>
	</g>
	<g>
		<path style="fill:#929497;" d="M39.95,42c0.032-0.33,0.05-0.662,0.05-1c0-6.074-4.926-11-11-11c-6.074,0-11,4.926-11,11
			c0,0.338,0.018,0.67,0.05,1H39.95z"/>
		<path style="fill:#6D6E70;" d="M29,30c6.074,0,11,4.926,11,11c0,0.338-0.018,0.67-0.05,1h-21.9C18.018,41.67,18,41.338,18,41
			C18,34.926,22.926,30,29,30 M29,29c-6.617,0-12,5.383-12,12c0,0.362,0.018,0.721,0.055,1.097C17.105,42.609,17.535,43,18.05,43
			h21.9c0.515,0,0.945-0.391,0.995-0.903C40.982,41.721,41,41.362,41,41C41,34.383,35.617,29,29,29L29,29z"/>
	</g>
	<g>
		<g>
			<circle style="fill:#D0D2D3;" cx="29" cy="41" r="8"/>
			<path style="fill:#6D6E70;" d="M29,33c4.418,0,8,3.582,8,8s-3.582,8-8,8s-8-3.582-8-8S24.582,33,29,33 M29,31
				c-5.514,0-10,4.486-10,10s4.486,10,10,10s10-4.486,10-10S34.514,31,29,31L29,31z"/>
		</g>
		<g>
			<circle style="fill:#FFFFFF;" cx="29" cy="41" r="4"/>
			<path style="fill:#6D6E70;" d="M29,37c2.209,0,4,1.791,4,4s-1.791,4-4,4s-4-1.791-4-4S26.791,37,29,37 M29,36
				c-2.757,0-5,2.243-5,5s2.243,5,5,5s5-2.243,5-5S31.757,36,29,36L29,36z"/>
		</g>
		<g>
			<circle style="fill:#929497;" cx="29" cy="41" r="1"/>
			<path style="fill:#BBBDBF;" d="M29,40c0.553,0,1,0.447,1,1s-0.447,1-1,1s-1-0.447-1-1S28.447,40,29,40 M29,39
				c-1.103,0-2,0.897-2,2s0.897,2,2,2s2-0.897,2-2S30.103,39,29,39L29,39z"/>
		</g>
	</g>
	<g>
		<path style="fill:#929497;" d="M124.95,42c0.032-0.33,0.05-0.662,0.05-1c0-6.074-4.926-11-11-11c-6.074,0-11,4.926-11,11
			c0,0.338,0.018,0.67,0.05,1H124.95z"/>
		<path style="fill:#6D6E70;" d="M114,30c6.074,0,11,4.926,11,11c0,0.338-0.018,0.67-0.05,1h-21.9c-0.032-0.33-0.05-0.662-0.05-1
			C103,34.926,107.926,30,114,30 M114,29c-6.617,0-12,5.383-12,12c0,0.362,0.018,0.721,0.055,1.097
			c0.05,0.512,0.481,0.903,0.995,0.903h21.9c0.515,0,0.945-0.391,0.995-0.903C125.982,41.721,126,41.362,126,41
			C126,34.383,120.617,29,114,29L114,29z"/>
	</g>
	<g>
		<g>
			<circle style="fill:#D0D2D3;" cx="114" cy="41" r="8"/>
			<path style="fill:#6D6E70;" d="M114,33c4.418,0,8,3.582,8,8s-3.582,8-8,8s-8-3.582-8-8S109.582,33,114,33 M114,31
				c-5.514,0-10,4.486-10,10s4.486,10,10,10s10-4.486,10-10S119.514,31,114,31L114,31z"/>
		</g>
		<g>
			<circle style="fill:#FFFFFF;" cx="114" cy="41" r="4"/>
			<path style="fill:#6D6E70;" d="M114,37c2.209,0,4,1.791,4,4s-1.791,4-4,4s-4-1.791-4-4S111.791,37,114,37 M114,36
				c-2.757,0-5,2.243-5,5s2.243,5,5,5s5-2.243,5-5S116.757,36,114,36L114,36z"/>
		</g>
		<g>
			<circle style="fill:#929497;" cx="114" cy="41" r="1"/>
			<path style="fill:#BBBDBF;" d="M114,40c0.553,0,1,0.447,1,1s-0.447,1-1,1s-1-0.447-1-1S113.447,40,114,40 M114,39
				c-1.103,0-2,0.897-2,2s0.897,2,2,2s2-0.897,2-2S115.103,39,114,39L114,39z"/>
		</g>
	</g>
	<g>
		<polygon style="fill:#E6E7E8;" points="129,26 131,32 136,32 135,26 		"/>
		<path style="fill:#6D6E70;" d="M135,26l1,6h-5l-2-6H135 M135,25h-6c-0.321,0-0.623,0.155-0.811,0.415
			c-0.188,0.261-0.239,0.596-0.137,0.901l2,6C130.187,32.725,130.57,33,131,33h5c0.294,0,0.573-0.129,0.763-0.354
			s0.272-0.521,0.223-0.811l-1-6C135.906,25.353,135.489,25,135,25L135,25z"/>
	</g>
	<g>
		<rect x="3" y="24" style="fill:#E6E7E8;" width="2" height="6"/>
		<path style="fill:#6D6E70;" d="M5,24v6H3v-6H5 M5,23H3c-0.552,0-1,0.448-1,1v6c0,0.552,0.448,1,1,1h2c0.552,0,1-0.448,1-1v-6
			C6,23.448,5.552,23,5,23L5,23z"/>
	</g>
	<g>
		<polygon style="fill:#BBBDBF;" points="80,18 80,5 91,5 94,6 104,14 104,18 		"/>
		<path style="fill:#6D6E70;" d="M91,5l3,1l10,8v4H80V5H91 M91,4H80c-0.552,0-1,0.448-1,1v13c0,0.552,0.448,1,1,1h24
			c0.552,0,1-0.448,1-1v-4c0-0.304-0.138-0.591-0.375-0.781l-10-8c-0.092-0.074-0.197-0.13-0.308-0.168l-3-1
			C91.214,4.017,91.107,4,91,4L91,4z"/>
	</g>
	<g>
		<rect x="49" y="5" style="fill:#BBBDBF;" width="24" height="13"/>
		<path style="fill:#6D6E70;" d="M73,5v13H49V5H73 M73,4H49c-0.552,0-1,0.448-1,1v13c0,0.552,0.448,1,1,1h24c0.552,0,1-0.448,1-1V5
			C74,4.448,73.552,4,73,4L73,4z"/>
	</g>
	<g>
		<polygon style="fill:#BBBDBF;" points="42,18 42,5 17,5 12,18 		"/>
		<path style="fill:#6D6E70;" d="M42,5v13H12l5-13H42 M42,4H17c-0.414,0-0.785,0.255-0.933,0.641l-5,13
			c-0.118,0.308-0.077,0.654,0.109,0.925C11.362,18.838,11.671,19,12,19h30c0.552,0,1-0.448,1-1V5C43,4.448,42.552,4,42,4L42,4z"/>
	</g>
	<g>
		<polygon style="fill:#FFFFFF;" points="103,14 105,14 106,16 106,18 103,18 		"/>
		<path style="fill:#6D6E70;" d="M105,14l1,2v2h-3v-4H105 M105,13h-2c-0.552,0-1,0.448-1,1v4c0,0.552,0.448,1,1,1h3
			c0.552,0,1-0.448,1-1v-2c0-0.155-0.036-0.308-0.106-0.447l-1-2C105.725,13.214,105.379,13,105,13L105,13z"/>
	</g>
	<g>
		<rect x="80" y="23" style="fill:#A6A8AB;" width="3" height="1"/>
		<path style="fill:#6D6E70;" d="M83,23v1h-3v-1H83 M83,22h-3c-0.552,0-1,0.448-1,1v1c0,0.552,0.448,1,1,1h3c0.552,0,1-0.448,1-1v-1
			C84,22.448,83.552,22,83,22L83,22z"/>
	</g>
	<g>
		<rect x="49" y="23" style="fill:#A6A8AB;" width="3" height="1"/>
		<path style="fill:#6D6E70;" d="M52,23v1h-3v-1H52 M52,22h-3c-0.552,0-1,0.448-1,1v1c0,0.552,0.448,1,1,1h3c0.552,0,1-0.448,1-1v-1
			C53,22.448,52.552,22,52,22L52,22z"/>
	</g>
	<rect x="76" y="2" style="fill:#6D6E70;" width="1" height="39"/>
	<rect x="45" y="2" style="fill:#6D6E70;" width="1" height="39"/>
	<rect x="15" y="22" style="fill:#929497;" width="30" height="1"/>
	<rect x="15" y="23" style="fill:#D0D2D3;" width="30" height="1"/>
</g>
</svg>
