<?xml version="1.0" encoding="iso-8859-1"?>
<!-- Generator: Adobe Illustrator 17.0.0, SVG Export Plug-In . SVG Version: 6.00 Build 0)  -->
<!DOCTYPE svg PUBLIC "-//W3C//DTD SVG 1.1//EN" "http://www.w3.org/Graphics/SVG/1.1/DTD/svg11.dtd">
<svg version="1.1" id="Layer_1" xmlns="http://www.w3.org/2000/svg" xmlns:xlink="http://www.w3.org/1999/xlink" x="0px" y="0px"
	 width="134px" height="51px" viewBox="0 0 134 51" style="enable-background:new 0 0 134 51;" xml:space="preserve">
<g>
	<g>
		<polygon style="fill:#FFFFFF;" points="129,41 16,41 3,41 2,40 2,33 3,32 3,24 3,20 6,4 7,3 9,2 90,2 94,3 96,4 110,15 114,17 
			125,23 129,25 130,26 131,33 132,34 132,40 		"/>
		<path style="fill:#6D6E70;" d="M90,2l4,1l2,1l14,11l4,2l11,6l4,2l1,1l1,7l1,1v6l-3,1H16H3l-1-1v-7l1-1v-8v-4L6,4l1-1l2-1H90 M90,0
			H9C8.69,0,8.383,0.072,8.106,0.211l-2,1c-0.192,0.096-0.368,0.223-0.52,0.375l-1,1C4.301,2.871,4.109,3.235,4.034,3.631l-3,16
			C1.011,19.753,1,19.876,1,20v4v7.172l-0.414,0.414C0.211,31.961,0,32.47,0,33v7c0,0.53,0.211,1.039,0.586,1.414l1,1
			C1.961,42.789,2.47,43,3,43h13h113c0.215,0,0.429-0.035,0.632-0.103l3-1C133.449,41.625,134,40.861,134,40v-6
			c0-0.53-0.211-1.039-0.586-1.414l-0.529-0.529l-0.906-6.34c-0.061-0.428-0.26-0.825-0.566-1.131l-1-1
			c-0.152-0.152-0.328-0.279-0.52-0.375l-3.968-1.984l-10.969-5.983c-0.021-0.011-0.042-0.022-0.063-0.033l-3.818-1.909
			L97.236,2.427c-0.106-0.083-0.221-0.156-0.341-0.216l-2-1c-0.13-0.065-0.268-0.116-0.409-0.151l-4-1C90.326,0.02,90.164,0,90,0
			L90,0z"/>
	</g>
	<g>
		<path style="fill:#929497;" d="M39.949,42C39.982,41.67,40,41.338,40,41c0-6.074-4.926-11-11-11c-6.074,0-11,4.926-11,11
			c0,0.338,0.018,0.67,0.049,1H39.949z"/>
		<path style="fill:#6D6E70;" d="M29,30c6.074,0,11,4.926,11,11c0,0.338-0.018,0.67-0.051,1h-21.9C18.018,41.67,18,41.338,18,41
			C18,34.926,22.926,30,29,30 M29,29c-6.617,0-12,5.383-12,12c0,0.357,0.017,0.715,0.053,1.094C17.102,42.608,17.533,43,18.049,43
			h21.9c0.514,0,0.944-0.389,0.995-0.9C40.981,41.732,41,41.361,41,41C41,34.383,35.617,29,29,29L29,29z"/>
	</g>
	<g>
		<g>
			<circle style="fill:#D0D2D3;" cx="29" cy="41" r="8"/>
			<path style="fill:#6D6E70;" d="M29,33c4.418,0,8,3.582,8,8s-3.582,8-8,8c-4.418,0-8-3.582-8-8S24.582,33,29,33 M29,31
				c-5.514,0-10,4.486-10,10s4.486,10,10,10s10-4.486,10-10S34.514,31,29,31L29,31z"/>
		</g>
		<g>
			<circle style="fill:#FFFFFF;" cx="29" cy="41" r="4"/>
			<path style="fill:#6D6E70;" d="M29,37c2.209,0,4,1.791,4,4s-1.791,4-4,4s-4-1.791-4-4S26.791,37,29,37 M29,36
				c-2.757,0-5,2.243-5,5s2.243,5,5,5s5-2.243,5-5S31.757,36,29,36L29,36z"/>
		</g>
		<g>
			<circle style="fill:#929497;" cx="29" cy="41" r="1"/>
			<path style="fill:#BBBDBF;" d="M29,40c0.553,0,1,0.447,1,1s-0.447,1-1,1c-0.553,0-1-0.447-1-1S28.447,40,29,40 M29,39
				c-1.103,0-2,0.897-2,2s0.897,2,2,2s2-0.897,2-2S30.103,39,29,39L29,39z"/>
		</g>
	</g>
	<g>
		<path style="fill:#929497;" d="M124.949,42c0.033-0.33,0.051-0.662,0.051-1c0-6.074-4.926-11-11-11c-6.074,0-11,4.926-11,11
			c0,0.338,0.018,0.67,0.049,1H124.949z"/>
		<path style="fill:#6D6E70;" d="M114,30c6.074,0,11,4.926,11,11c0,0.338-0.018,0.67-0.051,1h-21.9c-0.031-0.33-0.049-0.662-0.049-1
			C103,34.926,107.926,30,114,30 M114,29c-6.617,0-12,5.383-12,12c0,0.357,0.017,0.715,0.053,1.094
			c0.049,0.514,0.48,0.906,0.996,0.906h21.9c0.514,0,0.944-0.389,0.995-0.9C125.981,41.732,126,41.361,126,41
			C126,34.383,120.617,29,114,29L114,29z"/>
	</g>
	<g>
		<g>
			<circle style="fill:#D0D2D3;" cx="114" cy="41" r="8"/>
			<path style="fill:#6D6E70;" d="M114,33c4.418,0,8,3.582,8,8s-3.582,8-8,8c-4.418,0-8-3.582-8-8S109.582,33,114,33 M114,31
				c-5.514,0-10,4.486-10,10s4.486,10,10,10s10-4.486,10-10S119.514,31,114,31L114,31z"/>
		</g>
		<g>
			<circle style="fill:#FFFFFF;" cx="114" cy="41" r="4"/>
			<path style="fill:#6D6E70;" d="M114,37c2.209,0,4,1.791,4,4s-1.791,4-4,4s-4-1.791-4-4S111.791,37,114,37 M114,36
				c-2.757,0-5,2.243-5,5s2.243,5,5,5s5-2.243,5-5S116.757,36,114,36L114,36z"/>
		</g>
		<g>
			<circle style="fill:#929497;" cx="114" cy="41" r="1"/>
			<path style="fill:#BBBDBF;" d="M114,40c0.553,0,1,0.447,1,1s-0.447,1-1,1c-0.553,0-1-0.447-1-1S113.447,40,114,40 M114,39
				c-1.103,0-2,0.897-2,2s0.897,2,2,2s2-0.897,2-2S115.103,39,114,39L114,39z"/>
		</g>
	</g>
	<g>
		<polygon style="fill:#E6E7E8;" points="126,26 128,32 131,32 130,26 		"/>
		<path style="fill:#6D6E70;" d="M130,26l1,6h-3l-2-6H130 M130,25h-4c-0.321,0-0.623,0.155-0.811,0.415
			c-0.188,0.261-0.239,0.596-0.137,0.901l2,6C127.187,32.725,127.57,33,128,33h3c0.294,0,0.573-0.129,0.763-0.354
			s0.272-0.521,0.223-0.811l-1-6C130.906,25.353,130.489,25,130,25L130,25z"/>
	</g>
	<g>
		<rect x="3" y="24" style="fill:#E6E7E8;" width="2" height="6"/>
		<path style="fill:#6D6E70;" d="M5,24v6H3v-6H5 M5,23H3c-0.552,0-1,0.448-1,1v6c0,0.552,0.448,1,1,1h2c0.552,0,1-0.448,1-1v-6
			C6,23.448,5.552,23,5,23L5,23z"/>
	</g>
	<g>
		<polygon style="fill:#BBBDBF;" points="80,18 80,5 91,5 94,6 104,14 104,18 		"/>
		<path style="fill:#6D6E70;" d="M91,5l3,1l10,8v4H80V5H91 M91,4H80c-0.552,0-1,0.448-1,1v13c0,0.552,0.448,1,1,1h24
			c0.552,0,1-0.448,1-1v-4c0-0.304-0.138-0.591-0.375-0.781l-10-8c-0.092-0.074-0.197-0.13-0.308-0.168l-3-1
			C91.214,4.017,91.107,4,91,4L91,4z"/>
	</g>
	<g>
		<polygon style="fill:#FFFFFF;" points="103,14 105,14 106,16 106,18 103,18 		"/>
		<path style="fill:#6D6E70;" d="M105,14l1,2v2h-3v-4H105 M105,13h-2c-0.552,0-1,0.448-1,1v4c0,0.552,0.448,1,1,1h3
			c0.552,0,1-0.448,1-1v-2c0-0.155-0.036-0.308-0.106-0.447l-1-2C105.725,13.214,105.379,13,105,13L105,13z"/>
	</g>
	<g>
		<rect x="80" y="23" style="fill:#A6A8AB;" width="3" height="1"/>
		<path style="fill:#6D6E70;" d="M83,23v1h-3v-1H83 M83,22h-3c-0.552,0-1,0.448-1,1v1c0,0.552,0.448,1,1,1h3c0.552,0,1-0.448,1-1v-1
			C84,22.448,83.552,22,83,22L83,22z"/>
	</g>
	<g>
		<rect x="49" y="23" style="fill:#A6A8AB;" width="3" height="1"/>
		<path style="fill:#6D6E70;" d="M52,23v1h-3v-1H52 M52,22h-3c-0.552,0-1,0.448-1,1v1c0,0.552,0.448,1,1,1h3c0.552,0,1-0.448,1-1v-1
			C53,22.448,52.552,22,52,22L52,22z"/>
	</g>
	<rect x="76" y="2" style="fill:#6D6E70;" width="1" height="39"/>
	<rect x="45" y="2" style="fill:#6D6E70;" width="1" height="39"/>
	<rect x="15" y="22" style="fill:#929497;" width="30" height="1"/>
	<rect x="15" y="23" style="fill:#D0D2D3;" width="30" height="1"/>
</g>
</svg>
