<?xml version="1.0" encoding="iso-8859-1"?>
<!-- Generator: Adobe Illustrator 17.0.0, SVG Export Plug-In . SVG Version: 6.00 Build 0)  -->
<!DOCTYPE svg PUBLIC "-//W3C//DTD SVG 1.1//EN" "http://www.w3.org/Graphics/SVG/1.1/DTD/svg11.dtd">
<svg version="1.1" id="Layer_1" xmlns="http://www.w3.org/2000/svg" xmlns:xlink="http://www.w3.org/1999/xlink" x="0px" y="0px"
	 width="132px" height="46px" viewBox="0 0 132 46" style="enable-background:new 0 0 132 46;" xml:space="preserve">
<g>
	<g>
		<path style="fill:#FFFFFF;" d="M126,37H18L3,34l-1-2l1-6v-7c0,0,0-5,23-5c14,0,54,0,54,0s1.441-1,2-1c28,0,41,5,41,5l4,2l2,3l1,4
			v7L126,37z"/>
		<path style="fill:#6D6E70;" d="M82,13c28,0,41,5,41,5l4,2l2,3l1,4v7l-4,3H18L3,34l-1-2l1-6v-7c0,0,0-5,23-5c14,0,54,0,54,0
			S81.441,13,82,13 M82,11c-0.265,0-1.018,0-2.602,1H26c-9.815,0-16.854,0.897-20.922,2.666C1.397,16.266,1,18.23,1,19v6.834
			l-0.973,5.837c-0.069,0.417-0.005,0.845,0.184,1.223l1,2c0.276,0.552,0.791,0.946,1.397,1.067l15,3C17.737,38.987,17.868,39,18,39
			h108c0.433,0,0.854-0.14,1.2-0.4l4-3c0.504-0.378,0.8-0.97,0.8-1.6v-7c0-0.164-0.02-0.326-0.06-0.485l-1-4
			c-0.056-0.222-0.149-0.434-0.276-0.624l-2-3c-0.193-0.29-0.458-0.524-0.77-0.679l-4-2c-0.058-0.029-0.116-0.055-0.176-0.078
			C123.173,15.924,110.049,11,82,11L82,11z"/>
	</g>
	<g>
		<g>
			<path style="fill:#929497;" d="M39.81,38c0.12-0.65,0.19-1.316,0.19-2c0-6.074-4.926-11-11-11c-6.074,0-11,4.926-11,11
				c0,0.684,0.07,1.35,0.19,2H39.81z"/>
			<path style="fill:#6D6E70;" d="M29,25c6.074,0,11,4.926,11,11c0,0.684-0.07,1.35-0.19,2H18.19C18.07,37.35,18,36.684,18,36
				C18,29.926,22.926,25,29,25 M29,24c-6.617,0-12,5.383-12,12c0,0.714,0.068,1.427,0.207,2.182C17.295,38.656,17.708,39,18.19,39
				H39.81c0.482,0,0.896-0.344,0.983-0.818C40.932,37.427,41,36.714,41,36C41,29.383,35.617,24,29,24L29,24z"/>
		</g>
		<g>
			<g>
				<circle style="fill:#D0D2D3;" cx="29" cy="36" r="8"/>
				<path style="fill:#6D6E70;" d="M29,28c4.418,0,8,3.582,8,8s-3.582,8-8,8s-8-3.582-8-8S24.582,28,29,28 M29,26
					c-5.514,0-10,4.486-10,10s4.486,10,10,10s10-4.486,10-10S34.514,26,29,26L29,26z"/>
			</g>
			<g>
				<circle style="fill:#FFFFFF;" cx="29" cy="36" r="4"/>
				<path style="fill:#6D6E70;" d="M29,32c2.209,0,4,1.791,4,4s-1.791,4-4,4s-4-1.791-4-4S26.791,32,29,32 M29,31
					c-2.757,0-5,2.243-5,5s2.243,5,5,5s5-2.243,5-5S31.757,31,29,31L29,31z"/>
			</g>
			<g>
				<circle style="fill:#929497;" cx="29" cy="36" r="1"/>
				<path style="fill:#BBBDBF;" d="M29,35c0.553,0,1,0.447,1,1s-0.447,1-1,1s-1-0.447-1-1S28.447,35,29,35 M29,34
					c-1.103,0-2,0.897-2,2s0.897,2,2,2s2-0.897,2-2S30.103,34,29,34L29,34z"/>
			</g>
		</g>
	</g>
	<g>
		<g>
			<path style="fill:#929497;" d="M119.81,38c0.12-0.65,0.19-1.316,0.19-2c0-6.074-4.926-11-11-11c-6.074,0-11,4.926-11,11
				c0,0.684,0.07,1.35,0.19,2H119.81z"/>
			<path style="fill:#6D6E70;" d="M109,25c6.074,0,11,4.926,11,11c0,0.684-0.07,1.35-0.19,2H98.19C98.07,37.35,98,36.684,98,36
				C98,29.926,102.926,25,109,25 M109,24c-6.617,0-12,5.383-12,12c0,0.714,0.068,1.427,0.207,2.182
				C97.295,38.656,97.708,39,98.19,39h21.619c0.482,0,0.896-0.344,0.983-0.818C120.932,37.427,121,36.714,121,36
				C121,29.383,115.617,24,109,24L109,24z"/>
		</g>
		<g>
			<g>
				<circle style="fill:#D0D2D3;" cx="109" cy="36" r="8"/>
				<path style="fill:#6D6E70;" d="M109,28c4.418,0,8,3.582,8,8s-3.582,8-8,8s-8-3.582-8-8S104.582,28,109,28 M109,26
					c-5.514,0-10,4.486-10,10s4.486,10,10,10s10-4.486,10-10S114.514,26,109,26L109,26z"/>
			</g>
			<g>
				<circle style="fill:#FFFFFF;" cx="109" cy="36" r="4"/>
				<path style="fill:#6D6E70;" d="M109,32c2.209,0,4,1.791,4,4s-1.791,4-4,4s-4-1.791-4-4S106.791,32,109,32 M109,31
					c-2.757,0-5,2.243-5,5s2.243,5,5,5s5-2.243,5-5S111.757,31,109,31L109,31z"/>
			</g>
			<g>
				<circle style="fill:#929497;" cx="109" cy="36" r="1"/>
				<path style="fill:#BBBDBF;" d="M109,35c0.553,0,1,0.447,1,1s-0.447,1-1,1s-1-0.447-1-1S108.447,35,109,35 M109,34
					c-1.103,0-2,0.897-2,2s0.897,2,2,2s2-0.897,2-2S110.103,34,109,34L109,34z"/>
			</g>
		</g>
	</g>
	<g>
		<polygon style="fill:#E6E7E8;" points="124,22 124,24 127,27 130,27 129,24 128,22 		"/>
		<path style="fill:#6D6E70;" d="M128,22l1,2l1,3h-3l-3-3v-2H128 M128,21h-4c-0.552,0-1,0.448-1,1v2c0,0.265,0.105,0.52,0.293,0.707
			l3,3C126.48,27.895,126.735,28,127,28h3c0.321,0,0.623-0.155,0.811-0.415c0.188-0.261,0.239-0.596,0.137-0.901l-1-3
			c-0.015-0.045-0.033-0.089-0.054-0.131l-1-2C128.725,21.214,128.379,21,128,21L128,21z"/>
	</g>
	<g>
		<polygon style="fill:#E6E7E8;" points="3,20 7,20 7,23 5,24 3,24 		"/>
		<path style="fill:#6D6E70;" d="M7,20v3l-2,1H3v-4H7 M7,19H3c-0.552,0-1,0.448-1,1v4c0,0.552,0.448,1,1,1h2
			c0.155,0,0.308-0.036,0.447-0.106l2-1C7.786,23.725,8,23.379,8,23v-3C8,19.448,7.552,19,7,19L7,19z"/>
	</g>
	<rect x="41" y="14" style="fill:#6D6E70;" width="1" height="12"/>
	<polygon style="fill:#6D6E70;" points="44,31 43,31 41,26 42,26 	"/>
	<g>
		<rect x="81" y="17" style="fill:#6D6E70;" width="1" height="11"/>
		<polygon style="fill:#6D6E70;" points="82,17 81,17 79,12 80,12 		"/>
		<polygon style="fill:#6D6E70;" points="80,37 79,37 81,28 82,28 		"/>
	</g>
	<g>
		<rect x="46" y="18" style="fill:#A6A8AB;" width="3" height="1"/>
		<path style="fill:#6D6E70;" d="M49,18v1h-3v-1H49 M49,17h-3c-0.552,0-1,0.448-1,1v1c0,0.552,0.448,1,1,1h3c0.552,0,1-0.448,1-1v-1
			C50,17.448,49.552,17,49,17L49,17z"/>
	</g>
	<g>
		<polygon style="fill:#BBBDBF;" points="61,1 63,1 81,12 77,12 		"/>
		<path style="fill:#6D6E70;" d="M63,1l18,11h-4L61,1H63 M63,0h-2c-0.438,0-0.825,0.285-0.955,0.703
			c-0.13,0.418,0.027,0.873,0.388,1.121l16,11C76.6,12.939,76.798,13,77,13h4c0.448,0,0.841-0.298,0.963-0.729
			c0.121-0.431-0.059-0.891-0.441-1.124l-18-11C63.364,0.051,63.184,0,63,0L63,0z"/>
	</g>
	<g>
		<polygon style="fill:#FFFFFF;" points="72,11 74,11 75,13 75,15 72,15 		"/>
		<path style="fill:#6D6E70;" d="M74,11l1,2v2h-3v-4H74 M74,10h-2c-0.552,0-1,0.448-1,1v4c0,0.552,0.448,1,1,1h3
			c0.552,0,1-0.448,1-1v-2c0-0.155-0.036-0.308-0.106-0.447l-1-2C74.725,10.214,74.379,10,74,10L74,10z"/>
	</g>
	<g>
		<path style="fill:#929497;" d="M43,12c0,0,0-1,0-2s1-2,2-2s2,1,2,2s1,2,1,2H43z"/>
		<path style="fill:#6D6E70;" d="M45,8c1,0,2,1,2,2s1,2,1,2h-5c0,0,0-1,0-2S44,8,45,8 M45,7c-1.542,0-3,1.458-3,3v2
			c0,0.552,0.448,1,1,1h5c0.404,0,0.769-0.244,0.924-0.617s0.069-0.804-0.217-1.09C48.424,11.005,48,10.392,48,10
			C48,8.458,46.542,7,45,7L45,7z"/>
	</g>
	<g>
		<polygon style="fill:#929497;" points="26,12 28,7 31,4 35,2 41,1 62,1 62,2 44,3 40,4 37,6 35,10 35,12 		"/>
		<path style="fill:#6D6E70;" d="M62,1v1L44,3l-4,1l-3,2l-2,4v2h-9l2-5l3-3l4-2l6-1H62 M62,0H41c-0.055,0-0.11,0.005-0.164,0.014
			l-6,1c-0.098,0.016-0.194,0.047-0.283,0.092l-4,2c-0.096,0.048-0.184,0.111-0.26,0.187l-3,3c-0.096,0.096-0.171,0.21-0.221,0.336
			l-2,5c-0.123,0.308-0.086,0.657,0.1,0.932S25.668,13,26,13h9c0.552,0,1-0.448,1-1v-1.764l1.776-3.551l2.635-1.757l3.74-0.935
			l17.905-0.995C62.585,2.969,63,2.531,63,2V1C63,0.448,62.552,0,62,0L62,0z"/>
	</g>
</g>
</svg>
