<?xml version="1.0" encoding="iso-8859-1"?>
<!-- Generator: Adobe Illustrator 17.0.0, SVG Export Plug-In . SVG Version: 6.00 Build 0)  -->
<!DOCTYPE svg PUBLIC "-//W3C//DTD SVG 1.1//EN" "http://www.w3.org/Graphics/SVG/1.1/DTD/svg11.dtd">
<svg version="1.1" id="Layer_1" xmlns="http://www.w3.org/2000/svg" xmlns:xlink="http://www.w3.org/1999/xlink" x="0px" y="0px"
	 width="132px" height="45px" viewBox="0 0 132 45" style="enable-background:new 0 0 132 45;" xml:space="preserve">
<g>
	<g>
		<polygon style="fill:#FFFFFF;" points="127,36 19,36 3,33 2,31 3,25 3,14 18,13 40,2 73,2 98,14 123,17 127,19 129,22 130,26 
			130,33 		"/>
		<path style="fill:#6D6E70;" d="M73,2l25,12l25,3l4,2l2,3l1,4v7l-3,3H19L3,33l-1-2l1-6V14l15-1L40,2H73 M73,0H40
			c-0.311,0-0.617,0.072-0.894,0.211l-21.64,10.82L2.867,12.004C1.816,12.074,1,12.947,1,14v10.834l-0.973,5.837
			c-0.069,0.417-0.005,0.845,0.184,1.223l1,2c0.28,0.56,0.805,0.956,1.42,1.071l16,3C18.753,37.989,18.876,38,19,38h108
			c0.53,0,1.039-0.211,1.414-0.586l3-3C131.789,34.039,132,33.53,132,33v-7c0-0.164-0.02-0.326-0.06-0.485l-1-4
			c-0.056-0.222-0.149-0.434-0.276-0.624l-2-3c-0.193-0.29-0.458-0.524-0.77-0.679l-4-2c-0.206-0.103-0.428-0.169-0.656-0.197
			l-24.671-2.961L73.865,0.197C73.595,0.067,73.3,0,73,0L73,0z"/>
	</g>
	<g>
		<path style="fill:#929497;" d="M39.81,37c0.12-0.65,0.19-1.316,0.19-2c0-6.074-4.926-11-11-11s-11,4.926-11,11
			c0,0.684,0.07,1.35,0.19,2H39.81z"/>
		<path style="fill:#6D6E70;" d="M29,24c6.074,0,11,4.926,11,11c0,0.684-0.07,1.35-0.19,2H18.19C18.07,36.35,18,35.684,18,35
			C18,28.926,22.926,24,29,24 M29,23c-6.617,0-12,5.383-12,12c0,0.714,0.068,1.427,0.207,2.182C17.295,37.656,17.708,38,18.19,38
			H39.81c0.482,0,0.896-0.344,0.983-0.818C40.932,36.427,41,35.714,41,35C41,28.383,35.617,23,29,23L29,23z"/>
	</g>
	<g>
		<g>
			<circle style="fill:#D0D2D3;" cx="29" cy="35" r="8"/>
			<path style="fill:#6D6E70;" d="M29,27c4.418,0,8,3.582,8,8s-3.582,8-8,8s-8-3.582-8-8S24.582,27,29,27 M29,25
				c-5.514,0-10,4.486-10,10s4.486,10,10,10s10-4.486,10-10S34.514,25,29,25L29,25z"/>
		</g>
		<g>
			<circle style="fill:#FFFFFF;" cx="29" cy="35" r="4"/>
			<path style="fill:#6D6E70;" d="M29,31c2.209,0,4,1.791,4,4s-1.791,4-4,4s-4-1.791-4-4S26.791,31,29,31 M29,30
				c-2.757,0-5,2.243-5,5s2.243,5,5,5s5-2.243,5-5S31.757,30,29,30L29,30z"/>
		</g>
		<g>
			<circle style="fill:#929497;" cx="29" cy="35" r="1"/>
			<path style="fill:#BBBDBF;" d="M29,34c0.553,0,1,0.447,1,1s-0.447,1-1,1s-1-0.447-1-1S28.447,34,29,34 M29,33
				c-1.103,0-2,0.897-2,2s0.897,2,2,2s2-0.897,2-2S30.103,33,29,33L29,33z"/>
		</g>
	</g>
	<g>
		<path style="fill:#929497;" d="M119.81,37c0.12-0.65,0.19-1.316,0.19-2c0-6.074-4.926-11-11-11c-6.074,0-11,4.926-11,11
			c0,0.684,0.07,1.35,0.19,2H119.81z"/>
		<path style="fill:#6D6E70;" d="M109,24c6.074,0,11,4.926,11,11c0,0.684-0.07,1.35-0.19,2H98.19C98.07,36.35,98,35.684,98,35
			C98,28.926,102.926,24,109,24 M109,23c-6.617,0-12,5.383-12,12c0,0.714,0.068,1.427,0.207,2.182C97.295,37.656,97.708,38,98.19,38
			h21.619c0.482,0,0.896-0.344,0.983-0.818C120.932,36.427,121,35.714,121,35C121,28.383,115.617,23,109,23L109,23z"/>
	</g>
	<g>
		<g>
			<circle style="fill:#D0D2D3;" cx="109" cy="35" r="8"/>
			<path style="fill:#6D6E70;" d="M109,27c4.418,0,8,3.582,8,8s-3.582,8-8,8s-8-3.582-8-8S104.582,27,109,27 M109,25
				c-5.514,0-10,4.486-10,10s4.486,10,10,10s10-4.486,10-10S114.514,25,109,25L109,25z"/>
		</g>
		<g>
			<circle style="fill:#FFFFFF;" cx="109" cy="35" r="4"/>
			<path style="fill:#6D6E70;" d="M109,31c2.209,0,4,1.791,4,4s-1.791,4-4,4s-4-1.791-4-4S106.791,31,109,31 M109,30
				c-2.757,0-5,2.243-5,5s2.243,5,5,5s5-2.243,5-5S111.757,30,109,30L109,30z"/>
		</g>
		<g>
			<circle style="fill:#929497;" cx="109" cy="35" r="1"/>
			<path style="fill:#BBBDBF;" d="M109,34c0.553,0,1,0.447,1,1s-0.447,1-1,1c-0.553,0-1-0.447-1-1S108.447,34,109,34 M109,33
				c-1.103,0-2,0.897-2,2s0.897,2,2,2s2-0.897,2-2S110.103,33,109,33L109,33z"/>
		</g>
	</g>
	<g>
		<polygon style="fill:#E6E7E8;" points="121,20 121,22 127,25 130,25 129,22 128,20 		"/>
		<path style="fill:#6D6E70;" d="M128,20l1,2l1,3h-3l-6-3v-2H128 M128,19h-7c-0.552,0-1,0.448-1,1v2
			c0,0.379,0.214,0.725,0.553,0.894l6,3C126.692,25.964,126.845,26,127,26h3c0.321,0,0.623-0.155,0.811-0.415
			c0.188-0.261,0.239-0.596,0.137-0.901l-1-3c-0.015-0.045-0.033-0.089-0.054-0.131l-1-2C128.725,19.214,128.379,19,128,19L128,19z"
			/>
	</g>
	<g>
		<polygon style="fill:#E6E7E8;" points="3,17 9,17 9,20 7,22 3,22 		"/>
		<path style="fill:#6D6E70;" d="M9,17v3l-2,2H3v-5H9 M9,16H3c-0.552,0-1,0.448-1,1v5c0,0.552,0.448,1,1,1h4
			c0.265,0,0.52-0.105,0.707-0.293l2-2C9.895,20.52,10,20.265,10,20v-3C10,16.448,9.552,16,9,16L9,16z"/>
	</g>
	<rect x="54" y="2" style="fill:#6D6E70;" width="1" height="34"/>
	<g>
		<polygon style="fill:#BBBDBF;" points="59,13 59,5 72,5 87,12 87,13 		"/>
		<path style="fill:#6D6E70;" d="M72,5l15,7v1H59V5H72 M72,4H59c-0.552,0-1,0.448-1,1v8c0,0.552,0.448,1,1,1h28c0.552,0,1-0.448,1-1
			v-1c0-0.389-0.225-0.742-0.577-0.906l-15-7C72.29,4.032,72.146,4,72,4L72,4z"/>
	</g>
	<g>
		<polygon style="fill:#FFFFFF;" points="84,10 86,10 87,12 87,14 84,14 		"/>
		<path style="fill:#6D6E70;" d="M86,10l1,2v2h-3v-4H86 M86,9h-2c-0.552,0-1,0.448-1,1v4c0,0.552,0.448,1,1,1h3c0.552,0,1-0.448,1-1
			v-2c0-0.155-0.036-0.308-0.106-0.447l-1-2C86.725,9.214,86.379,9,86,9L86,9z"/>
	</g>
	<g>
		<polygon style="fill:#BBBDBF;" points="50,13 50,5 42,5 32,10 32,13 		"/>
		<path style="fill:#6D6E70;" d="M50,5v8H32v-3l10-5H50 M50,4h-8c-0.155,0-0.308,0.036-0.447,0.106l-10,5
			C31.214,9.275,31,9.621,31,10v3c0,0.552,0.448,1,1,1h18c0.552,0,1-0.448,1-1V5C51,4.448,50.552,4,50,4L50,4z"/>
	</g>
	<g>
		<rect x="94" y="16" style="fill:#6D6E70;" width="1" height="11"/>
		<polygon style="fill:#6D6E70;" points="95,16 94,16 92,11 93,11 		"/>
		<polygon style="fill:#6D6E70;" points="93,36 92,36 94,27 95,27 		"/>
	</g>
	<g>
		<rect x="59" y="17" style="fill:#A6A8AB;" width="3" height="1"/>
		<path style="fill:#6D6E70;" d="M62,17v1h-3v-1H62 M62,16h-3c-0.552,0-1,0.448-1,1v1c0,0.552,0.448,1,1,1h3c0.552,0,1-0.448,1-1v-1
			C63,16.448,62.552,16,62,16L62,16z"/>
	</g>
</g>
</svg>
