<?xml version="1.0" encoding="iso-8859-1"?>
<!-- Generator: Adobe Illustrator 17.0.0, SVG Export Plug-In . SVG Version: 6.00 Build 0)  -->
<!DOCTYPE svg PUBLIC "-//W3C//DTD SVG 1.1//EN" "http://www.w3.org/Graphics/SVG/1.1/DTD/svg11.dtd">
<svg version="1.1" id="Layer_1" xmlns="http://www.w3.org/2000/svg" xmlns:xlink="http://www.w3.org/1999/xlink" x="0px" y="0px"
	 width="135px" height="45px" viewBox="0 0 135 45" style="enable-background:new 0 0 135 45;" xml:space="preserve">
<g>
	<g>
		<polygon style="fill:#FFFFFF;" points="130,36 19,36 3,33 2,31 3,25 3,14 18,13 40,2 76,2 101,14 126,17 130,19 132,22 133,26 
			133,33 		"/>
		<path style="fill:#6D6E70;" d="M76,2l25,12l25,3l4,2l2,3l1,4v7l-3,3H19L3,33l-1-2l1-6V14l15-1L40,2H76 M76,0H40
			c-0.31,0-0.617,0.072-0.894,0.211l-21.64,10.82L2.867,12.004C1.816,12.074,1,12.947,1,14v10.834l-0.973,5.837
			c-0.07,0.417-0.005,0.845,0.184,1.223l1,2c0.28,0.56,0.805,0.956,1.42,1.071l16,3C18.753,37.989,18.876,38,19,38h111
			c0.53,0,1.039-0.211,1.414-0.586l3-3C134.789,34.039,135,33.53,135,33v-7c0-0.164-0.02-0.326-0.06-0.485l-1-4
			c-0.056-0.222-0.149-0.434-0.276-0.624l-2-3c-0.193-0.29-0.458-0.524-0.77-0.679l-4-2c-0.206-0.103-0.428-0.169-0.656-0.197
			l-24.671-2.961L76.865,0.197C76.595,0.067,76.3,0,76,0L76,0z"/>
	</g>
	<g>
		<path style="fill:#929497;" d="M39.809,37C39.929,36.35,40,35.684,40,35c0-6.074-4.926-11-11-11c-6.075,0-11,4.926-11,11
			c0,0.684,0.07,1.35,0.189,2H39.809z"/>
		<path style="fill:#6D6E70;" d="M29,24c6.074,0,11,4.926,11,11c0,0.684-0.071,1.35-0.191,2H18.189C18.07,36.35,18,35.684,18,35
			C18,28.926,22.925,24,29,24 M29,23c-6.617,0-12,5.383-12,12c0,0.711,0.067,1.424,0.206,2.18c0.087,0.475,0.501,0.82,0.984,0.82
			h21.619c0.482,0,0.896-0.344,0.983-0.818C40.932,36.424,41,35.71,41,35C41,28.383,35.617,23,29,23L29,23z"/>
	</g>
	<g>
		<g>
			<circle style="fill:#D0D2D3;" cx="29" cy="35" r="8"/>
			<path style="fill:#6D6E70;" d="M29,27c4.418,0,8,3.582,8,8s-3.582,8-8,8c-4.418,0-8-3.582-8-8S24.582,27,29,27 M29,25
				c-5.514,0-10,4.486-10,10s4.486,10,10,10s10-4.486,10-10S34.514,25,29,25L29,25z"/>
		</g>
		<g>
			<circle style="fill:#FFFFFF;" cx="29" cy="35" r="4"/>
			<path style="fill:#6D6E70;" d="M29,31c2.209,0,4,1.791,4,4s-1.791,4-4,4s-4-1.791-4-4S26.791,31,29,31 M29,30
				c-2.757,0-5,2.243-5,5s2.243,5,5,5s5-2.243,5-5S31.757,30,29,30L29,30z"/>
		</g>
		<g>
			<circle style="fill:#929497;" cx="29" cy="35" r="1"/>
			<path style="fill:#BBBDBF;" d="M29,34c0.553,0,1,0.447,1,1s-0.447,1-1,1c-0.553,0-1-0.447-1-1S28.447,34,29,34 M29,33
				c-1.103,0-2,0.897-2,2s0.897,2,2,2s2-0.897,2-2S30.103,33,29,33L29,33z"/>
		</g>
	</g>
	<g>
		<path style="fill:#929497;" d="M122.809,37c0.12-0.65,0.191-1.316,0.191-2c0-6.074-4.926-11-11-11c-6.075,0-11,4.926-11,11
			c0,0.684,0.07,1.35,0.189,2H122.809z"/>
		<path style="fill:#6D6E70;" d="M112,24c6.074,0,11,4.926,11,11c0,0.684-0.071,1.35-0.191,2h-21.619
			C101.07,36.35,101,35.684,101,35C101,28.926,105.925,24,112,24 M112,23c-6.617,0-12,5.383-12,12c0,0.711,0.067,1.424,0.206,2.18
			c0.087,0.475,0.501,0.82,0.984,0.82h21.619c0.482,0,0.896-0.344,0.983-0.818C123.932,36.424,124,35.71,124,35
			C124,28.383,118.617,23,112,23L112,23z"/>
	</g>
	<g>
		<g>
			<circle style="fill:#D0D2D3;" cx="112" cy="35" r="8"/>
			<path style="fill:#6D6E70;" d="M112,27c4.418,0,8,3.582,8,8s-3.582,8-8,8c-4.418,0-8-3.582-8-8S107.582,27,112,27 M112,25
				c-5.514,0-10,4.486-10,10s4.486,10,10,10s10-4.486,10-10S117.514,25,112,25L112,25z"/>
		</g>
		<g>
			<circle style="fill:#FFFFFF;" cx="112" cy="35" r="4"/>
			<path style="fill:#6D6E70;" d="M112,31c2.209,0,4,1.791,4,4s-1.791,4-4,4s-4-1.791-4-4S109.791,31,112,31 M112,30
				c-2.757,0-5,2.243-5,5s2.243,5,5,5s5-2.243,5-5S114.757,30,112,30L112,30z"/>
		</g>
		<g>
			<circle style="fill:#929497;" cx="112" cy="35" r="1"/>
			<path style="fill:#BBBDBF;" d="M112,34c0.553,0,1,0.447,1,1s-0.447,1-1,1c-0.553,0-1-0.447-1-1S111.447,34,112,34 M112,33
				c-1.103,0-2,0.897-2,2s0.897,2,2,2s2-0.897,2-2S113.103,33,112,33L112,33z"/>
		</g>
	</g>
	<g>
		<polygon style="fill:#E6E7E8;" points="124,20 124,22 130,25 133,25 132,22 131,20 		"/>
		<path style="fill:#6D6E70;" d="M131,20l1,2l1,3h-3l-6-3v-2H131 M131,19h-7c-0.552,0-1,0.448-1,1v2
			c0,0.379,0.214,0.725,0.553,0.894l6,3C129.692,25.964,129.845,26,130,26h3c0.321,0,0.623-0.155,0.811-0.415
			c0.188-0.261,0.239-0.596,0.137-0.901l-1-3c-0.015-0.045-0.033-0.089-0.054-0.131l-1-2C131.725,19.214,131.379,19,131,19L131,19z"
			/>
	</g>
	<g>
		<polygon style="fill:#E6E7E8;" points="3,17 9,17 9,20 7,22 3,22 		"/>
		<path style="fill:#6D6E70;" d="M9,17v3l-2,2H3v-5H9 M9,16H3c-0.552,0-1,0.448-1,1v5c0,0.552,0.448,1,1,1h4
			c0.265,0,0.52-0.105,0.707-0.293l2-2C9.895,20.52,10,20.265,10,20v-3C10,16.448,9.552,16,9,16L9,16z"/>
	</g>
	<rect x="61" y="2" style="fill:#6D6E70;" width="1" height="34"/>
	<g>
		<polygon style="fill:#BBBDBF;" points="65,13 65,5 75,5 90,12 90,13 		"/>
		<path style="fill:#6D6E70;" d="M75,5l15,7v1H65V5H75 M75,4H65c-0.552,0-1,0.448-1,1v8c0,0.552,0.448,1,1,1h25c0.552,0,1-0.448,1-1
			v-1c0-0.389-0.225-0.742-0.577-0.906l-15-7C75.29,4.032,75.146,4,75,4L75,4z"/>
	</g>
	<g>
		<polygon style="fill:#FFFFFF;" points="87,10 89,10 90,12 90,14 87,14 		"/>
		<path style="fill:#6D6E70;" d="M89,10l1,2v2h-3v-4H89 M89,9h-2c-0.552,0-1,0.448-1,1v4c0,0.552,0.448,1,1,1h3c0.552,0,1-0.448,1-1
			v-2c0-0.155-0.036-0.308-0.106-0.447l-1-2C89.725,9.214,89.379,9,89,9L89,9z"/>
	</g>
	<g>
		<polygon style="fill:#BBBDBF;" points="58,13 58,5 43,5 37,9 37,13 		"/>
		<path style="fill:#6D6E70;" d="M58,5v8H37V9l6-4H58 M58,4H43c-0.197,0-0.39,0.058-0.555,0.168l-6,4C36.167,8.353,36,8.666,36,9v4
			c0,0.552,0.448,1,1,1h21c0.552,0,1-0.448,1-1V5C59,4.448,58.552,4,58,4L58,4z"/>
	</g>
	<rect x="32" y="9" style="fill:#6D6E70;" width="1" height="11"/>
	<polygon style="fill:#6D6E70;" points="34,22 33,22 32,20 33,20 	"/>
	<g>
		<rect x="97" y="16" style="fill:#6D6E70;" width="1" height="11"/>
		<polygon style="fill:#6D6E70;" points="98,16 97,16 95,11 96,11 		"/>
		<polygon style="fill:#6D6E70;" points="96,36 95,36 97,27 98,27 		"/>
	</g>
	<g>
		<rect x="65" y="17" style="fill:#A6A8AB;" width="3" height="1"/>
		<path style="fill:#6D6E70;" d="M68,17v1h-3v-1H68 M68,16h-3c-0.552,0-1,0.448-1,1v1c0,0.552,0.448,1,1,1h3c0.552,0,1-0.448,1-1v-1
			C69,16.448,68.552,16,68,16L68,16z"/>
	</g>
	<g>
		<rect x="37" y="17" style="fill:#A6A8AB;" width="3" height="1"/>
		<path style="fill:#6D6E70;" d="M40,17v1h-3v-1H40 M40,16h-3c-0.552,0-1,0.448-1,1v1c0,0.552,0.448,1,1,1h3c0.552,0,1-0.448,1-1v-1
			C41,16.448,40.552,16,40,16L40,16z"/>
	</g>
</g>
</svg>
