<?xml version="1.0" encoding="iso-8859-1"?>
<!-- Generator: Adobe Illustrator 17.0.0, SVG Export Plug-In . SVG Version: 6.00 Build 0)  -->
<!DOCTYPE svg PUBLIC "-//W3C//DTD SVG 1.1//EN" "http://www.w3.org/Graphics/SVG/1.1/DTD/svg11.dtd">
<svg version="1.1" id="Layer_1" xmlns="http://www.w3.org/2000/svg" xmlns:xlink="http://www.w3.org/1999/xlink" x="0px" y="0px"
	 width="135px" height="45px" viewBox="0 0 135 45" style="enable-background:new 0 0 135 45;" xml:space="preserve">
<g>
	<g>
		<polygon style="fill:#FFFFFF;" points="130,36 19,36 3,33 2,31 3,25 3,14 14,4 18,2 76,2 101,14 126,17 130,19 132,22 133,26 
			133,33 		"/>
		<path style="fill:#6D6E70;" d="M76,2l25,12l25,3l4,2l2,3l1,4v7l-3,3H19L3,33l-1-2l1-6V14L14,4l4-2H76 M76,0H18
			c-0.31,0-0.617,0.072-0.894,0.211l-4,2c-0.164,0.082-0.315,0.186-0.451,0.309l-11,10C1.238,12.899,1,13.437,1,14v10.834
			l-0.973,5.837c-0.07,0.417-0.005,0.845,0.184,1.223l1,2c0.28,0.56,0.805,0.956,1.42,1.071l16,3C18.753,37.989,18.876,38,19,38h111
			c0.53,0,1.039-0.211,1.414-0.586l3-3C134.789,34.039,135,33.53,135,33v-7c0-0.164-0.02-0.326-0.06-0.485l-1-4
			c-0.056-0.222-0.149-0.434-0.276-0.624l-2-3c-0.193-0.29-0.458-0.524-0.77-0.68l-4-2c-0.206-0.103-0.428-0.169-0.656-0.197
			l-24.671-2.961L76.865,0.197C76.595,0.067,76.3,0,76,0L76,0z"/>
	</g>
	<g>
		<path style="fill:#929497;" d="M39.81,37c0.12-0.65,0.19-1.316,0.19-2c0-6.074-4.926-11-11-11c-6.074,0-11,4.926-11,11
			c0,0.684,0.07,1.35,0.19,2H39.81z"/>
		<path style="fill:#6D6E70;" d="M29,24c6.074,0,11,4.926,11,11c0,0.684-0.07,1.35-0.19,2H18.19C18.07,36.35,18,35.684,18,35
			C18,28.926,22.926,24,29,24 M29,23c-6.617,0-12,5.383-12,12c0,0.713,0.068,1.427,0.207,2.182C17.295,37.656,17.708,38,18.19,38
			H39.81c0.482,0,0.896-0.344,0.983-0.818C40.932,36.427,41,35.714,41,35C41,28.383,35.617,23,29,23L29,23z"/>
	</g>
	<g>
		<g>
			<circle style="fill:#D0D2D3;" cx="29" cy="35" r="8"/>
			<path style="fill:#6D6E70;" d="M29,27c4.418,0,8,3.582,8,8s-3.582,8-8,8s-8-3.582-8-8S24.582,27,29,27 M29,25
				c-5.514,0-10,4.486-10,10s4.486,10,10,10s10-4.486,10-10S34.514,25,29,25L29,25z"/>
		</g>
		<g>
			<circle style="fill:#FFFFFF;" cx="29" cy="35" r="4"/>
			<path style="fill:#6D6E70;" d="M29,31c2.209,0,4,1.791,4,4s-1.791,4-4,4s-4-1.791-4-4S26.791,31,29,31 M29,30
				c-2.757,0-5,2.243-5,5s2.243,5,5,5s5-2.243,5-5S31.757,30,29,30L29,30z"/>
		</g>
		<g>
			<circle style="fill:#929497;" cx="29" cy="35" r="1"/>
			<path style="fill:#BBBDBF;" d="M29,34c0.553,0,1,0.447,1,1s-0.447,1-1,1c-0.553,0-1-0.447-1-1S28.447,34,29,34 M29,33
				c-1.103,0-2,0.897-2,2s0.897,2,2,2s2-0.897,2-2S30.103,33,29,33L29,33z"/>
		</g>
	</g>
	<g>
		<path style="fill:#929497;" d="M122.81,37c0.12-0.65,0.19-1.316,0.19-2c0-6.074-4.926-11-11-11c-6.074,0-11,4.926-11,11
			c0,0.684,0.07,1.35,0.19,2H122.81z"/>
		<path style="fill:#6D6E70;" d="M112,24c6.074,0,11,4.926,11,11c0,0.684-0.07,1.35-0.19,2H101.19c-0.12-0.65-0.19-1.316-0.19-2
			C101,28.926,105.926,24,112,24 M112,23c-6.617,0-12,5.383-12,12c0,0.713,0.068,1.427,0.207,2.182
			c0.088,0.474,0.501,0.818,0.983,0.818h21.619c0.482,0,0.896-0.344,0.983-0.818C123.932,36.427,124,35.714,124,35
			C124,28.383,118.617,23,112,23L112,23z"/>
	</g>
	<g>
		<g>
			<circle style="fill:#D0D2D3;" cx="112" cy="35" r="8"/>
			<path style="fill:#6D6E70;" d="M112,27c4.418,0,8,3.582,8,8s-3.582,8-8,8s-8-3.582-8-8S107.582,27,112,27 M112,25
				c-5.514,0-10,4.486-10,10s4.486,10,10,10s10-4.486,10-10S117.514,25,112,25L112,25z"/>
		</g>
		<g>
			<circle style="fill:#FFFFFF;" cx="112" cy="35" r="4"/>
			<path style="fill:#6D6E70;" d="M112,31c2.209,0,4,1.791,4,4s-1.791,4-4,4s-4-1.791-4-4S109.791,31,112,31 M112,30
				c-2.757,0-5,2.243-5,5s2.243,5,5,5s5-2.243,5-5S114.757,30,112,30L112,30z"/>
		</g>
		<g>
			<circle style="fill:#929497;" cx="112" cy="35" r="1"/>
			<path style="fill:#BBBDBF;" d="M112,34c0.553,0,1,0.447,1,1s-0.447,1-1,1c-0.553,0-1-0.447-1-1S111.447,34,112,34 M112,33
				c-1.103,0-2,0.897-2,2s0.897,2,2,2s2-0.897,2-2S113.103,33,112,33L112,33z"/>
		</g>
	</g>
	<g>
		<polygon style="fill:#E6E7E8;" points="124,20 124,22 130,25 133,25 132,22 131,20 		"/>
		<path style="fill:#6D6E70;" d="M131,20l1,2l1,3h-3l-6-3v-2H131 M131,19h-7c-0.552,0-1,0.448-1,1v2
			c0,0.379,0.214,0.725,0.553,0.894l6,3C129.692,25.964,129.845,26,130,26h3c0.321,0,0.623-0.155,0.811-0.415
			c0.188-0.261,0.239-0.596,0.137-0.901l-1-3c-0.015-0.045-0.033-0.089-0.054-0.131l-1-2C131.725,19.214,131.379,19,131,19L131,19z"
			/>
	</g>
	<g>
		<polygon style="fill:#E6E7E8;" points="3,18 9,18 9,21 7,23 3,23 		"/>
		<path style="fill:#6D6E70;" d="M9,18v3l-2,2H3v-5H9 M9,17H3c-0.552,0-1,0.448-1,1v5c0,0.552,0.448,1,1,1h4
			c0.265,0,0.52-0.105,0.707-0.293l2-2C9.895,21.52,10,21.265,10,21v-3C10,17.448,9.552,17,9,17L9,17z"/>
	</g>
	<rect x="62" y="2" style="fill:#6D6E70;" width="1" height="34"/>
	<g>
		<polygon style="fill:#BBBDBF;" points="66,13 66,5 75,5 90,12 90,13 		"/>
		<path style="fill:#6D6E70;" d="M75,5l15,7v1H66V5H75 M75,4h-9c-0.552,0-1,0.448-1,1v8c0,0.552,0.448,1,1,1h24c0.552,0,1-0.448,1-1
			v-1c0-0.389-0.225-0.742-0.577-0.906l-15-7C75.29,4.032,75.146,4,75,4L75,4z"/>
	</g>
	<g>
		<polygon style="fill:#FFFFFF;" points="87,10 89,10 90,12 90,14 87,14 		"/>
		<path style="fill:#6D6E70;" d="M89,10l1,2v2h-3v-4H89 M89,9h-2c-0.552,0-1,0.448-1,1v4c0,0.552,0.448,1,1,1h3c0.552,0,1-0.448,1-1
			v-2c0-0.155-0.036-0.308-0.106-0.447l-1-2C89.725,9.214,89.379,9,89,9L89,9z"/>
	</g>
	<g>
		<rect x="40" y="5" style="fill:#BBBDBF;" width="19" height="8"/>
		<path style="fill:#6D6E70;" d="M59,5v8H40V5H59 M59,4H40c-0.552,0-1,0.448-1,1v8c0,0.552,0.448,1,1,1h19c0.552,0,1-0.448,1-1V5
			C60,4.448,59.552,4,59,4L59,4z"/>
	</g>
	<g>
		<polygon style="fill:#BBBDBF;" points="33,13 33,5 21,5 12,13 		"/>
		<path style="fill:#6D6E70;" d="M33,5v8H12l9-8H33 M33,4H21c-0.245,0-0.481,0.09-0.664,0.253l-9,8
			c-0.31,0.276-0.418,0.715-0.27,1.103C11.213,13.743,11.585,14,12,14h21c0.552,0,1-0.448,1-1V5C34,4.448,33.552,4,33,4L33,4z"/>
	</g>
	<g>
		<rect x="97" y="16" style="fill:#6D6E70;" width="1" height="11"/>
		<polygon style="fill:#6D6E70;" points="98,16 97,16 95,11 96,11 		"/>
		<polygon style="fill:#6D6E70;" points="96,36 95,36 97,27 98,27 		"/>
	</g>
	<g>
		<rect x="66" y="17" style="fill:#A6A8AB;" width="3" height="1"/>
		<path style="fill:#6D6E70;" d="M69,17v1h-3v-1H69 M69,16h-3c-0.552,0-1,0.448-1,1v1c0,0.552,0.448,1,1,1h3c0.552,0,1-0.448,1-1v-1
			C70,16.448,69.552,16,69,16L69,16z"/>
	</g>
	<g>
		<rect x="40" y="17" style="fill:#A6A8AB;" width="3" height="1"/>
		<path style="fill:#6D6E70;" d="M43,17v1h-3v-1H43 M43,16h-3c-0.552,0-1,0.448-1,1v1c0,0.552,0.448,1,1,1h3c0.552,0,1-0.448,1-1v-1
			C44,16.448,43.552,16,43,16L43,16z"/>
	</g>
	<rect x="36" y="2" style="fill:#6D6E70;" width="1" height="20"/>
	<polygon style="fill:#6D6E70;" points="39,25 38,25 36,22 37,22 	"/>
</g>
</svg>
