<?xml version="1.0" encoding="iso-8859-1"?>
<!-- Generator: Adobe Illustrator 17.0.0, SVG Export Plug-In . SVG Version: 6.00 Build 0)  -->
<!DOCTYPE svg PUBLIC "-//W3C//DTD SVG 1.1//EN" "http://www.w3.org/Graphics/SVG/1.1/DTD/svg11.dtd">
<svg version="1.1" id="Layer_1" xmlns="http://www.w3.org/2000/svg" xmlns:xlink="http://www.w3.org/1999/xlink" x="0px" y="0px"
	 width="128px" height="52px" viewBox="0 0 128 52" style="enable-background:new 0 0 128 52;" xml:space="preserve">
<g>
	<g>
		<path style="fill:#FFFFFF;" d="M65,41H39H12L2,39v-7l2-2V18L8.062,5C8.062,5,9,2,12,2s57,0,57,0l19,13l2,1l25,2l5,1l4,4l1,7l1,1v6
			l-2,4H65z"/>
		<path style="fill:#6D6E70;" d="M69,2l19,13l2,1l25,2l5,1l4,4l1,7l1,1v6l-2,4H65H39H12L2,39v-7l2-2V18L8.062,5C8.062,5,9,2,12,2
			S69,2,69,2 M69,0H12C8.471,0,6.665,2.768,6.154,4.403l-4.062,13C2.031,17.597,2,17.798,2,18v11.172l-1.414,1.414
			C0.211,30.961,0,31.47,0,32v7c0,0.953,0.673,1.774,1.608,1.961l10,2C11.737,42.987,11.868,43,12,43h27h26h59
			c0.758,0,1.45-0.428,1.789-1.106l2-4C127.928,37.617,128,37.311,128,37v-6c0-0.53-0.211-1.039-0.586-1.414l-0.529-0.529
			l-0.906-6.34c-0.061-0.428-0.26-0.825-0.566-1.131l-4-4c-0.279-0.279-0.635-0.469-1.022-0.547l-5-1
			c-0.077-0.015-0.155-0.026-0.233-0.032l-24.613-1.969l-1.53-0.765L70.129,0.349C69.797,0.122,69.403,0,69,0L69,0z"/>
	</g>
	<g>
		<polygon style="fill:#BBBDBF;" points="51,5 51,17 82,17 82,15 68,5 		"/>
		<path style="fill:#6D6E70;" d="M68,5l14,10v2H51V5H68 M68,4H51c-0.552,0-1,0.448-1,1v12c0,0.552,0.448,1,1,1h31
			c0.552,0,1-0.448,1-1v-2c0-0.323-0.156-0.626-0.419-0.814l-14-10C68.412,4.065,68.208,4,68,4L68,4z"/>
	</g>
	<rect x="47" y="2" style="fill:#6D6E70;" width="1" height="39"/>
	<g>
		<polygon style="fill:#BBBDBF;" points="43,5 14,5 11,16 43,16 		"/>
		<path style="fill:#6D6E70;" d="M43,5v11H11l3-11H43 M43,4H14c-0.451,0-0.846,0.302-0.965,0.737l-3,11
			c-0.082,0.301-0.019,0.622,0.17,0.87C10.394,16.855,10.688,17,11,17h32c0.552,0,1-0.448,1-1V5C44,4.448,43.552,4,43,4L43,4z"/>
	</g>
	<g>
		<rect x="4" y="21" style="fill:#E6E7E8;" width="3" height="7"/>
		<path style="fill:#6D6E70;" d="M7,21v7H4v-7H7 M7,20H4c-0.552,0-1,0.448-1,1v7c0,0.552,0.448,1,1,1h3c0.552,0,1-0.448,1-1v-7
			C8,20.448,7.552,20,7,20L7,20z"/>
	</g>
	<g>
		<rect x="51" y="21" style="fill:#A6A8AB;" width="3" height="1"/>
		<path style="fill:#6D6E70;" d="M54,21v1h-3v-1H54 M54,20h-3c-0.552,0-1,0.448-1,1v1c0,0.552,0.448,1,1,1h3c0.552,0,1-0.448,1-1v-1
			C55,20.448,54.552,20,54,20L54,20z"/>
	</g>
	<g>
		<polygon style="fill:#E6E7E8;" points="121,20 120,20 119,21 119,23 122,26 124,26 124,23 		"/>
		<path style="fill:#6D6E70;" d="M121,20l3,3v3h-2l-3-3v-2l1-1H121 M121,19h-1c-0.265,0-0.52,0.105-0.707,0.293l-1,1
			C118.105,20.48,118,20.735,118,21v2c0,0.265,0.105,0.52,0.293,0.707l3,3C121.48,26.895,121.735,27,122,27h2c0.552,0,1-0.448,1-1
			v-3c0-0.265-0.105-0.52-0.293-0.707l-3-3C121.52,19.105,121.265,19,121,19L121,19z"/>
	</g>
	<rect x="86" y="13" style="fill:#6D6E70;" width="1" height="21"/>
	<polygon style="fill:#6D6E70;" points="86,41 85,41 86,34 87,34 	"/>
	<g>
		<path style="fill:#929497;" d="M38.83,43c0.102-0.654,0.17-1.318,0.17-2c0-7.181-5.82-13-13-13s-13,5.819-13,13
			c0,0.682,0.068,1.346,0.17,2H38.83z"/>
		<path style="fill:#6D6E70;" d="M26,28c7.18,0,13,5.819,13,13c0,0.682-0.068,1.346-0.17,2H13.17C13.068,42.346,13,41.682,13,41
			C13,33.819,18.82,28,26,28 M26,27c-7.72,0-14,6.28-14,14c0,0.661,0.059,1.365,0.182,2.153C12.257,43.641,12.677,44,13.17,44h25.66
			c0.493,0,0.913-0.359,0.988-0.847C39.941,42.365,40,41.661,40,41C40,33.28,33.72,27,26,27L26,27z"/>
	</g>
	<g>
		<g>
			<circle style="fill:#D0D2D3;" cx="26" cy="41" r="9"/>
			<path style="fill:#6D6E70;" d="M26,32c4.971,0,9,4.029,9,9s-4.029,9-9,9s-9-4.029-9-9S21.029,32,26,32 M26,30
				c-6.065,0-11,4.935-11,11s4.935,11,11,11s11-4.935,11-11S32.065,30,26,30L26,30z"/>
		</g>
		<g>
			<circle style="fill:#FFFFFF;" cx="26" cy="41" r="5"/>
			<path style="fill:#6D6E70;" d="M26,36c2.762,0,5,2.238,5,5s-2.238,5-5,5s-5-2.238-5-5S23.238,36,26,36 M26,35
				c-3.308,0-6,2.692-6,6s2.692,6,6,6s6-2.692,6-6S29.308,35,26,35L26,35z"/>
		</g>
		<path style="fill:#6D6E70;" d="M25.293,40.293l-2.121-2.121c0.434-0.435,0.974-0.752,1.568-0.951l0.947,2.842
			C25.539,40.112,25.4,40.184,25.293,40.293z M25,41c0-0.162,0.047-0.309,0.114-0.443l-2.679-1.339C22.166,39.756,22,40.355,22,41
			H25L25,41z M27.781,37.436C27.243,37.166,26.643,37,26,37v3c0.161,0,0.309,0.047,0.443,0.114L27.781,37.436z M26.937,40.688
			l2.841-0.947c-0.198-0.596-0.517-1.136-0.95-1.569l-2.121,2.122C26.815,40.4,26.887,40.539,26.937,40.688z M27,41
			c0,0.161-0.047,0.308-0.115,0.443l2.679,1.338C29.834,42.242,30,41.644,30,41H27z M26.311,41.937l0.947,2.841
			c0.595-0.198,1.136-0.516,1.569-0.949l-2.121-2.121C26.598,41.815,26.461,41.887,26.311,41.937z M25.062,41.312l-2.841,0.946
			c0.198,0.595,0.517,1.136,0.95,1.569l2.121-2.121C25.185,41.598,25.113,41.461,25.062,41.312z M24.219,44.562
			C24.757,44.834,25.356,45,26,45v-3c-0.161,0-0.308-0.047-0.443-0.115L24.219,44.562z"/>
	</g>
	<g>
		<path style="fill:#929497;" d="M117.83,43c0.102-0.654,0.17-1.318,0.17-2c0-7.181-5.82-13-13-13c-7.18,0-13,5.819-13,13
			c0,0.682,0.068,1.346,0.17,2H117.83z"/>
		<path style="fill:#6D6E70;" d="M105,28c7.18,0,13,5.819,13,13c0,0.682-0.068,1.346-0.17,2H92.17C92.068,42.346,92,41.682,92,41
			C92,33.819,97.82,28,105,28 M105,27c-7.72,0-14,6.28-14,14c0,0.661,0.059,1.365,0.182,2.153C91.257,43.641,91.677,44,92.17,44
			h25.66c0.493,0,0.913-0.359,0.988-0.847C118.941,42.365,119,41.661,119,41C119,33.28,112.72,27,105,27L105,27z"/>
	</g>
	<g>
		<g>
			<circle style="fill:#D0D2D3;" cx="105" cy="41" r="9"/>
			<path style="fill:#6D6E70;" d="M105,32c4.971,0,9,4.029,9,9s-4.029,9-9,9s-9-4.029-9-9S100.029,32,105,32 M105,30
				c-6.065,0-11,4.935-11,11s4.935,11,11,11s11-4.935,11-11S111.065,30,105,30L105,30z"/>
		</g>
		<g>
			<circle style="fill:#FFFFFF;" cx="105" cy="41" r="5"/>
			<path style="fill:#6D6E70;" d="M105,36c2.762,0,5,2.238,5,5s-2.238,5-5,5s-5-2.238-5-5S102.238,36,105,36 M105,35
				c-3.308,0-6,2.692-6,6s2.692,6,6,6s6-2.692,6-6S108.308,35,105,35L105,35z"/>
		</g>
		<path style="fill:#6D6E70;" d="M104.293,40.293l-2.121-2.121c0.434-0.435,0.974-0.752,1.568-0.951l0.947,2.842
			C104.539,40.112,104.4,40.184,104.293,40.293z M104,41c0-0.162,0.047-0.309,0.114-0.443l-2.679-1.339
			C101.166,39.756,101,40.355,101,41H104L104,41z M106.781,37.436C106.243,37.166,105.643,37,105,37v3
			c0.161,0,0.309,0.047,0.443,0.114L106.781,37.436z M105.937,40.688l2.841-0.947c-0.198-0.596-0.517-1.136-0.95-1.569l-2.121,2.122
			C105.815,40.4,105.887,40.539,105.937,40.688z M106,41c0,0.161-0.047,0.308-0.115,0.443l2.679,1.338
			C108.834,42.242,109,41.644,109,41H106z M105.311,41.937l0.947,2.841c0.595-0.198,1.136-0.516,1.569-0.949l-2.121-2.121
			C105.598,41.815,105.461,41.887,105.311,41.937z M104.062,41.312l-2.841,0.946c0.198,0.595,0.517,1.136,0.95,1.569l2.121-2.121
			C104.185,41.598,104.113,41.461,104.062,41.312z M103.219,44.562C103.757,44.834,104.356,45,105,45v-3
			c-0.161,0-0.308-0.047-0.443-0.115L103.219,44.562z"/>
	</g>
	<path style="fill:#929497;" d="M10,31.5c-0.088,0-0.177-0.023-0.257-0.071c-0.237-0.142-0.314-0.449-0.172-0.686
		C13.199,24.696,18.88,21.5,26,21.5c5.844,0,10.622,2.076,14.201,6.169c0.183,0.208,0.161,0.524-0.047,0.706
		c-0.207,0.181-0.523,0.161-0.705-0.047C36.067,24.46,31.543,22.5,26,22.5c-6.846,0-12.085,2.946-15.571,8.757
		C10.335,31.414,10.169,31.5,10,31.5z"/>
	<path style="fill:#929497;" d="M121,31.5c-0.169,0-0.335-0.086-0.429-0.243c-0.856-1.427-1.842-2.704-2.93-3.795
		C114.358,24.169,110.105,22.5,105,22.5c-5.542,0-10.067,1.961-13.451,5.829c-0.183,0.208-0.498,0.229-0.705,0.047
		c-0.208-0.182-0.229-0.498-0.047-0.706C94.378,23.576,99.157,21.5,105,21.5c5.381,0,9.872,1.769,13.351,5.256
		c1.145,1.149,2.181,2.49,3.078,3.986c0.143,0.237,0.065,0.544-0.172,0.686C121.177,31.477,121.088,31.5,121,31.5z"/>
	<g>
		<polygon style="fill:#FFFFFF;" points="80,14 82,14 83,16 83,18 80,18 		"/>
		<path style="fill:#6D6E70;" d="M82,14l1,2v2h-3v-4H82 M82,13h-2c-0.552,0-1,0.448-1,1v4c0,0.552,0.448,1,1,1h3
			c0.552,0,1-0.448,1-1v-2c0-0.155-0.036-0.308-0.106-0.447l-1-2C82.725,13.214,82.379,13,82,13L82,13z"/>
	</g>
</g>
</svg>
