<?xml version="1.0" encoding="iso-8859-1"?>
<!-- Generator: Adobe Illustrator 17.0.0, SVG Export Plug-In . SVG Version: 6.00 Build 0)  -->
<!DOCTYPE svg PUBLIC "-//W3C//DTD SVG 1.1//EN" "http://www.w3.org/Graphics/SVG/1.1/DTD/svg11.dtd">
<svg version="1.1" id="Layer_1" xmlns="http://www.w3.org/2000/svg" xmlns:xlink="http://www.w3.org/1999/xlink" x="0px" y="0px"
	 width="138px" height="52px" viewBox="0 0 138 52" style="enable-background:new 0 0 138 52;" xml:space="preserve">
<g>
	<g>
		<path style="fill:#FFFFFF;" d="M45,41H18L2,39v-7l2-2V18L8.062,5C8.062,5,9,2,12,2s67,0,67,0l19,13l2,1l25,2l5,1l4,4l1,7l1,1v6
			l-2,4h-5H45z"/>
		<path style="fill:#6D6E70;" d="M79,2l19,13l2,1l25,2l5,1l4,4l1,7l1,1v6l-2,4h-5H45H18L2,39v-7l2-2V18L8.062,5C8.062,5,9,2,12,2
			S79,2,79,2 M79,0H12C8.471,0,6.665,2.768,6.154,4.403l-4.062,13C2.031,17.597,2,17.798,2,18v11.172l-1.414,1.414
			C0.211,30.961,0,31.47,0,32v7c0,1.009,0.751,1.859,1.752,1.985l16,2C17.834,42.995,17.917,43,18,43h27h84h5
			c0.758,0,1.45-0.428,1.789-1.106l2-4C137.928,37.617,138,37.311,138,37v-6c0-0.53-0.211-1.039-0.586-1.414l-0.529-0.529
			l-0.906-6.34c-0.061-0.428-0.26-0.825-0.566-1.131l-4-4c-0.279-0.279-0.635-0.469-1.022-0.547l-5-1
			c-0.077-0.015-0.155-0.026-0.233-0.032l-24.613-1.969l-1.53-0.765L80.129,0.349C79.797,0.122,79.403,0,79,0L79,0z"/>
	</g>
	<g>
		<path style="fill:#929497;" d="M44.83,43c0.102-0.654,0.17-1.318,0.17-2c0-7.181-5.82-13-13-13c-7.18,0-13,5.819-13,13
			c0,0.682,0.068,1.346,0.17,2H44.83z"/>
		<path style="fill:#6D6E70;" d="M32,28c7.18,0,13,5.819,13,13c0,0.682-0.068,1.346-0.17,2H19.17C19.068,42.346,19,41.682,19,41
			C19,33.819,24.82,28,32,28 M32,27c-7.72,0-14,6.28-14,14c0,0.661,0.059,1.365,0.182,2.153C18.257,43.641,18.677,44,19.17,44h25.66
			c0.493,0,0.913-0.359,0.988-0.847C45.941,42.365,46,41.661,46,41C46,33.28,39.72,27,32,27L32,27z"/>
	</g>
	<g>
		<g>
			<circle style="fill:#D0D2D3;" cx="32" cy="41" r="9"/>
			<path style="fill:#6D6E70;" d="M32,32c4.971,0,9,4.029,9,9s-4.029,9-9,9s-9-4.029-9-9S27.029,32,32,32 M32,30
				c-6.065,0-11,4.935-11,11s4.935,11,11,11s11-4.935,11-11S38.065,30,32,30L32,30z"/>
		</g>
		<g>
			<circle style="fill:#FFFFFF;" cx="32" cy="41" r="5"/>
			<path style="fill:#6D6E70;" d="M32,36c2.762,0,5,2.238,5,5s-2.238,5-5,5c-2.762,0-5-2.238-5-5S29.238,36,32,36 M32,35
				c-3.308,0-6,2.692-6,6s2.692,6,6,6s6-2.692,6-6S35.308,35,32,35L32,35z"/>
		</g>
		<path style="fill:#6D6E70;" d="M31.293,40.293l-2.121-2.121c0.434-0.435,0.974-0.752,1.568-0.951l0.947,2.842
			C31.539,40.112,31.4,40.184,31.293,40.293z M31,41c0-0.162,0.047-0.309,0.114-0.443l-2.679-1.339C28.166,39.756,28,40.355,28,41
			H31L31,41z M33.781,37.436C33.243,37.166,32.644,37,32,37v3c0.161,0,0.309,0.047,0.443,0.114L33.781,37.436z M32.937,40.688
			l2.841-0.947c-0.198-0.596-0.517-1.136-0.95-1.569l-2.121,2.122C32.815,40.4,32.887,40.539,32.937,40.688z M33,41
			c0,0.161-0.047,0.308-0.115,0.443l2.679,1.338C35.834,42.242,36,41.644,36,41H33z M32.311,41.937l0.947,2.841
			c0.595-0.198,1.136-0.516,1.569-0.949l-2.121-2.121C32.598,41.815,32.461,41.887,32.311,41.937z M31.062,41.312l-2.841,0.946
			c0.198,0.595,0.517,1.136,0.95,1.569l2.121-2.121C31.185,41.598,31.113,41.461,31.062,41.312z M30.219,44.562
			C30.757,44.834,31.356,45,32,45v-3c-0.161,0-0.308-0.047-0.443-0.115L30.219,44.562z"/>
	</g>
	<g>
		<path style="fill:#929497;" d="M127.83,43c0.102-0.654,0.17-1.318,0.17-2c0-7.181-5.82-13-13-13c-7.18,0-13,5.819-13,13
			c0,0.682,0.068,1.346,0.17,2H127.83z"/>
		<path style="fill:#6D6E70;" d="M115,28c7.18,0,13,5.819,13,13c0,0.682-0.068,1.346-0.17,2h-25.66c-0.102-0.654-0.17-1.318-0.17-2
			C102,33.819,107.82,28,115,28 M115,27c-7.72,0-14,6.28-14,14c0,0.661,0.059,1.365,0.182,2.153
			c0.076,0.487,0.495,0.847,0.988,0.847h25.66c0.493,0,0.913-0.359,0.988-0.847C128.941,42.365,129,41.661,129,41
			C129,33.28,122.72,27,115,27L115,27z"/>
	</g>
	<g>
		<g>
			<circle style="fill:#D0D2D3;" cx="115" cy="41" r="9"/>
			<path style="fill:#6D6E70;" d="M115,32c4.971,0,9,4.029,9,9s-4.029,9-9,9s-9-4.029-9-9S110.029,32,115,32 M115,30
				c-6.065,0-11,4.935-11,11s4.935,11,11,11s11-4.935,11-11S121.065,30,115,30L115,30z"/>
		</g>
		<g>
			<circle style="fill:#FFFFFF;" cx="115" cy="41" r="5"/>
			<path style="fill:#6D6E70;" d="M115,36c2.762,0,5,2.238,5,5s-2.238,5-5,5c-2.762,0-5-2.238-5-5S112.238,36,115,36 M115,35
				c-3.308,0-6,2.692-6,6s2.692,6,6,6s6-2.692,6-6S118.308,35,115,35L115,35z"/>
		</g>
		<path style="fill:#6D6E70;" d="M114.293,40.293l-2.121-2.121c0.434-0.435,0.974-0.752,1.568-0.951l0.947,2.842
			C114.539,40.112,114.4,40.184,114.293,40.293z M114,41c0-0.162,0.047-0.309,0.114-0.443l-2.679-1.339
			C111.166,39.756,111,40.355,111,41H114L114,41z M116.781,37.436C116.243,37.166,115.644,37,115,37v3
			c0.161,0,0.309,0.047,0.443,0.114L116.781,37.436z M115.937,40.688l2.841-0.947c-0.198-0.596-0.517-1.136-0.95-1.569l-2.121,2.122
			C115.815,40.4,115.887,40.539,115.937,40.688z M116,41c0,0.161-0.047,0.308-0.115,0.443l2.679,1.338
			C118.834,42.242,119,41.644,119,41H116z M115.311,41.937l0.947,2.841c0.595-0.198,1.136-0.516,1.569-0.949l-2.121-2.121
			C115.598,41.815,115.461,41.887,115.311,41.937z M114.062,41.312l-2.841,0.946c0.198,0.595,0.517,1.136,0.95,1.569l2.121-2.121
			C114.185,41.598,114.113,41.461,114.062,41.312z M113.219,44.562C113.757,44.834,114.356,45,115,45v-3
			c-0.161,0-0.308-0.047-0.443-0.115L113.219,44.562z"/>
	</g>
	<g>
		<polygon style="fill:#BBBDBF;" points="67,5 67,17 92,17 92,15 78,5 		"/>
		<path style="fill:#6D6E70;" d="M78,5l14,10v2H67V5H78 M78,4H67c-0.552,0-1,0.448-1,1v12c0,0.552,0.448,1,1,1h25
			c0.552,0,1-0.448,1-1v-2c0-0.323-0.156-0.626-0.419-0.814l-14-10C78.412,4.065,78.208,4,78,4L78,4z"/>
	</g>
	<rect x="63" y="2" style="fill:#6D6E70;" width="1" height="39"/>
	<rect x="33" y="2" style="fill:#6D6E70;" width="1" height="18"/>
	<g>
		<polygon style="fill:#BBBDBF;" points="60,5 37,5 37,16 60,17 		"/>
		<path style="fill:#6D6E70;" d="M60,5v12l-23-1V5H60 M60,4H37c-0.552,0-1,0.448-1,1v11c0,0.535,0.422,0.976,0.957,0.999l23,1
			C59.971,18,59.986,18,60,18c0.257,0,0.505-0.099,0.692-0.278C60.889,17.534,61,17.273,61,17V5C61,4.448,60.552,4,60,4L60,4z"/>
	</g>
	<g>
		<polygon style="fill:#BBBDBF;" points="30,5 13,5 10,15 30,15 		"/>
		<path style="fill:#6D6E70;" d="M30,5v10H10l3-10H30 M30,4H13c-0.442,0-0.831,0.29-0.958,0.713l-3,10
			c-0.091,0.303-0.033,0.631,0.156,0.884C9.386,15.851,9.684,16,10,16h20c0.552,0,1-0.448,1-1V5C31,4.448,30.552,4,30,4L30,4z"/>
	</g>
	<g>
		<rect x="4" y="21" style="fill:#E6E7E8;" width="3" height="7"/>
		<path style="fill:#6D6E70;" d="M7,21v7H4v-7H7 M7,20H4c-0.552,0-1,0.448-1,1v7c0,0.552,0.448,1,1,1h3c0.552,0,1-0.448,1-1v-7
			C8,20.448,7.552,20,7,20L7,20z"/>
	</g>
	<g>
		<rect x="67" y="21" style="fill:#A6A8AB;" width="3" height="1"/>
		<path style="fill:#6D6E70;" d="M70,21v1h-3v-1H70 M70,20h-3c-0.552,0-1,0.448-1,1v1c0,0.552,0.448,1,1,1h3c0.552,0,1-0.448,1-1v-1
			C71,20.448,70.552,20,70,20L70,20z"/>
	</g>
	<g>
		<rect x="37" y="19" style="fill:#A6A8AB;" width="3" height="1"/>
		<path style="fill:#6D6E70;" d="M40,19v1h-3v-1H40 M40,18h-3c-0.552,0-1,0.448-1,1v1c0,0.552,0.448,1,1,1h3c0.552,0,1-0.448,1-1v-1
			C41,18.448,40.552,18,40,18L40,18z"/>
	</g>
	<path style="fill:#929497;" d="M16,31.5c-0.088,0-0.177-0.023-0.257-0.071c-0.237-0.142-0.314-0.449-0.172-0.686
		C19.199,24.696,24.88,21.5,32,21.5c5.844,0,10.622,2.076,14.201,6.169c0.183,0.208,0.161,0.524-0.047,0.706
		c-0.207,0.181-0.523,0.161-0.705-0.047C42.067,24.46,37.543,22.5,32,22.5c-6.846,0-12.085,2.946-15.571,8.757
		C16.335,31.414,16.169,31.5,16,31.5z"/>
	<path style="fill:#929497;" d="M131,31.5c-0.169,0-0.335-0.086-0.429-0.243c-0.856-1.427-1.842-2.704-2.93-3.795
		C124.358,24.169,120.105,22.5,115,22.5c-5.542,0-10.067,1.961-13.451,5.829c-0.182,0.208-0.498,0.229-0.705,0.047
		c-0.208-0.182-0.229-0.498-0.047-0.706c3.581-4.095,8.36-6.171,14.203-6.171c5.381,0,9.872,1.769,13.351,5.256
		c1.145,1.149,2.181,2.49,3.078,3.986c0.143,0.237,0.065,0.544-0.172,0.686C131.177,31.477,131.088,31.5,131,31.5z"/>
	<g>
		<polygon style="fill:#E6E7E8;" points="131,20 130,20 129,21 129,23 132,26 134,26 134,23 		"/>
		<path style="fill:#6D6E70;" d="M131,20l3,3v3h-2l-3-3v-2l1-1H131 M131,19h-1c-0.265,0-0.52,0.105-0.707,0.293l-1,1
			C128.105,20.48,128,20.735,128,21v2c0,0.265,0.105,0.52,0.293,0.707l3,3C131.48,26.895,131.735,27,132,27h2c0.552,0,1-0.448,1-1
			v-3c0-0.265-0.105-0.52-0.293-0.707l-3-3C131.52,19.105,131.265,19,131,19L131,19z"/>
	</g>
	<rect x="96" y="13" style="fill:#6D6E70;" width="1" height="21"/>
	<polygon style="fill:#6D6E70;" points="96,41 95,41 96,34 97,34 	"/>
	<g>
		<polygon style="fill:#FFFFFF;" points="90,14 92,14 93,16 93,18 90,18 		"/>
		<path style="fill:#6D6E70;" d="M92,14l1,2v2h-3v-4H92 M92,13h-2c-0.552,0-1,0.448-1,1v4c0,0.552,0.448,1,1,1h3
			c0.552,0,1-0.448,1-1v-2c0-0.155-0.036-0.308-0.106-0.447l-1-2C92.725,13.214,92.379,13,92,13L92,13z"/>
	</g>
</g>
</svg>
