<?xml version="1.0" encoding="iso-8859-1"?>
<!-- Generator: Adobe Illustrator 17.0.0, SVG Export Plug-In . SVG Version: 6.00 Build 0)  -->
<!DOCTYPE svg PUBLIC "-//W3C//DTD SVG 1.1//EN" "http://www.w3.org/Graphics/SVG/1.1/DTD/svg11.dtd">
<svg version="1.1" id="Layer_1" xmlns="http://www.w3.org/2000/svg" xmlns:xlink="http://www.w3.org/1999/xlink" x="0px" y="0px"
	 width="132px" height="51px" viewBox="0 0 132 51" style="enable-background:new 0 0 132 51;" xml:space="preserve">
<g>
	<g>
		<path style="fill:#FFFFFF;" d="M10,41l-8-3v-7l2-2l1-11L17,6c0,0,3-4,11-4c2.38,0,36,0,36,0l9,2l20,11l3,1l16,2l11,3l5,4l2,5v5
			l-1,6H10z"/>
		<path style="fill:#6D6E70;" d="M64,2l9,2l20,11l3,1l16,2l11,3l5,4l2,5v5l-1,6H10l-8-3v-7l2-2l1-11L17,6c0,0,3-4,11-4
			C30.38,2,64,2,64,2 M64,0H28c-8.121,0-11.791,3.835-12.482,4.654L3.586,16.586c-0.331,0.331-0.535,0.767-0.578,1.233L2.074,28.098
			l-1.488,1.488C0.211,29.961,0,30.47,0,31v7c0,0.834,0.517,1.58,1.298,1.873l8,3C9.522,42.957,9.76,43,10,43h119
			c0.978,0,1.812-0.707,1.973-1.671l1-6C131.991,35.22,132,35.11,132,35v-5c0-0.254-0.049-0.507-0.143-0.743l-2-5
			c-0.128-0.321-0.338-0.603-0.608-0.819l-5-4c-0.213-0.171-0.46-0.296-0.723-0.368l-11-3c-0.091-0.025-0.184-0.043-0.278-0.055
			L96.445,14.04l-2.64-0.88L73.964,2.248c-0.166-0.091-0.345-0.159-0.53-0.2l-9-2C64.291,0.016,64.146,0,64,0L64,0z"/>
	</g>
	<g>
		<g>
			<path style="display:none;fill:#929497;" d="M36.835,42C36.932,41.345,37,40.682,37,40c0-7.732-6.268-14-14-14S9,32.268,9,40
				c0,0.682,0.068,1.345,0.165,2H36.835z"/>
			<path style="display:none;fill:#6D6E70;" d="M23,26c7.732,0,14,6.268,14,14c0,0.682-0.068,1.345-0.165,2H9.165
				C9.068,41.345,9,40.682,9,40C9,32.268,15.268,26,23,26 M23,25c-8.271,0-15,6.729-15,15c0,0.651,0.056,1.333,0.176,2.146
				C8.248,42.637,8.669,43,9.165,43h27.67c0.496,0,0.917-0.364,0.989-0.854C37.944,41.333,38,40.651,38,40
				C38,31.729,31.271,25,23,25L23,25z"/>
		</g>
		<g>
			<path style="fill:#929497;" d="M35.83,42c0.102-0.654,0.17-1.318,0.17-2c0-7.181-5.82-13-13-13s-13,5.819-13,13
				c0,0.682,0.068,1.346,0.17,2H35.83z"/>
			<path style="fill:#6D6E70;" d="M23,27c7.18,0,13,5.819,13,13c0,0.682-0.068,1.346-0.17,2H10.17C10.068,41.346,10,40.682,10,40
				C10,32.819,15.82,27,23,27 M23,26c-7.72,0-14,6.28-14,14c0,0.661,0.059,1.365,0.182,2.153C9.257,42.641,9.677,43,10.17,43h25.66
				c0.493,0,0.913-0.359,0.988-0.847C36.941,41.365,37,40.661,37,40C37,32.28,30.72,26,23,26L23,26z"/>
		</g>
		<g>
			<circle style="fill:#D0D2D3;" cx="23" cy="40" r="9"/>
			<path style="fill:#6D6E70;" d="M23,31c4.971,0,9,4.029,9,9s-4.029,9-9,9s-9-4.029-9-9S18.029,31,23,31 M23,29
				c-6.065,0-11,4.935-11,11s4.935,11,11,11s11-4.935,11-11S29.065,29,23,29L23,29z"/>
		</g>
		<g>
			<circle style="fill:#FFFFFF;" cx="23" cy="40" r="5"/>
			<path style="fill:#6D6E70;" d="M23,35c2.762,0,5,2.238,5,5s-2.238,5-5,5s-5-2.238-5-5S20.238,35,23,35 M23,34
				c-3.308,0-6,2.692-6,6s2.692,6,6,6s6-2.692,6-6S26.308,34,23,34L23,34z"/>
		</g>
		<path style="fill:#6D6E70;" d="M22.293,39.293l-2.121-2.121c0.434-0.435,0.974-0.752,1.568-0.951l0.947,2.842
			C22.539,39.112,22.4,39.184,22.293,39.293z M22,40c0-0.162,0.047-0.309,0.114-0.443l-2.679-1.339C19.166,38.756,19,39.355,19,40
			H22L22,40z M24.781,36.436C24.243,36.166,23.644,36,23,36v3c0.161,0,0.309,0.047,0.443,0.114L24.781,36.436z M23.938,39.688
			l2.841-0.947c-0.198-0.596-0.517-1.136-0.95-1.569l-2.121,2.122C23.815,39.4,23.887,39.539,23.938,39.688z M24,40
			c0,0.161-0.047,0.308-0.115,0.443l2.679,1.338C26.834,41.242,27,40.644,27,40H24z M23.312,40.937l0.947,2.841
			c0.595-0.198,1.136-0.516,1.569-0.949l-2.121-2.121C23.598,40.815,23.461,40.887,23.312,40.937z M22.062,40.312l-2.841,0.946
			c0.198,0.595,0.517,1.136,0.95,1.569l2.121-2.121C22.185,40.598,22.113,40.461,22.062,40.312z M21.219,43.562
			C21.757,43.834,22.356,44,23,44v-3c-0.161,0-0.308-0.047-0.443-0.115L21.219,43.562z"/>
	</g>
	<g>
		<g>
			<path style="display:none;fill:#929497;" d="M119.835,42c0.097-0.655,0.165-1.318,0.165-2c0-7.732-6.268-14-14-14
				c-7.732,0-14,6.268-14,14c0,0.682,0.068,1.345,0.165,2H119.835z"/>
			<path style="display:none;fill:#6D6E70;" d="M106,26c7.732,0,14,6.268,14,14c0,0.682-0.068,1.345-0.165,2h-27.67
				C92.068,41.345,92,40.682,92,40C92,32.268,98.268,26,106,26 M106,25c-8.271,0-15,6.729-15,15c0,0.651,0.056,1.333,0.176,2.146
				C91.248,42.637,91.669,43,92.165,43h27.67c0.496,0,0.917-0.364,0.989-0.854C120.944,41.333,121,40.651,121,40
				C121,31.729,114.271,25,106,25L106,25z"/>
		</g>
		<g>
			<path style="fill:#929497;" d="M118.83,42c0.102-0.654,0.17-1.318,0.17-2c0-7.181-5.82-13-13-13c-7.18,0-13,5.819-13,13
				c0,0.682,0.068,1.346,0.17,2H118.83z"/>
			<path style="fill:#6D6E70;" d="M106,27c7.18,0,13,5.819,13,13c0,0.682-0.068,1.346-0.17,2H93.17C93.068,41.346,93,40.682,93,40
				C93,32.819,98.82,27,106,27 M106,26c-7.72,0-14,6.28-14,14c0,0.661,0.059,1.365,0.182,2.153C92.257,42.641,92.677,43,93.17,43
				h25.66c0.493,0,0.913-0.359,0.988-0.847C119.941,41.365,120,40.661,120,40C120,32.28,113.72,26,106,26L106,26z"/>
		</g>
		<g>
			<circle style="fill:#D0D2D3;" cx="106" cy="40" r="9"/>
			<path style="fill:#6D6E70;" d="M106,31c4.971,0,9,4.029,9,9s-4.029,9-9,9c-4.971,0-9-4.029-9-9S101.029,31,106,31 M106,29
				c-6.065,0-11,4.935-11,11s4.935,11,11,11s11-4.935,11-11S112.065,29,106,29L106,29z"/>
		</g>
		<g>
			<circle style="fill:#FFFFFF;" cx="106" cy="40" r="5"/>
			<path style="fill:#6D6E70;" d="M106,35c2.762,0,5,2.238,5,5s-2.238,5-5,5c-2.762,0-5-2.238-5-5S103.238,35,106,35 M106,34
				c-3.308,0-6,2.692-6,6s2.692,6,6,6s6-2.692,6-6S109.308,34,106,34L106,34z"/>
		</g>
		<path style="fill:#6D6E70;" d="M105.293,39.293l-2.121-2.121c0.434-0.435,0.974-0.752,1.568-0.951l0.947,2.842
			C105.539,39.112,105.4,39.184,105.293,39.293z M105,40c0-0.162,0.047-0.309,0.114-0.443l-2.679-1.339
			C102.166,38.756,102,39.355,102,40H105L105,40z M107.781,36.436C107.243,36.166,106.644,36,106,36v3
			c0.161,0,0.309,0.047,0.443,0.114L107.781,36.436z M106.937,39.688l2.841-0.947c-0.198-0.596-0.517-1.136-0.95-1.569l-2.121,2.122
			C106.815,39.4,106.887,39.539,106.937,39.688z M107,40c0,0.161-0.047,0.308-0.115,0.443l2.679,1.338
			C109.834,41.242,110,40.644,110,40H107z M106.311,40.937l0.947,2.841c0.595-0.198,1.136-0.516,1.569-0.949l-2.121-2.121
			C106.598,40.815,106.461,40.887,106.311,40.937z M105.062,40.312l-2.841,0.946c0.198,0.595,0.517,1.136,0.95,1.569l2.121-2.121
			C105.185,40.598,105.113,40.461,105.062,40.312z M104.219,43.562C104.757,43.834,105.356,44,106,44v-3
			c-0.161,0-0.308-0.047-0.443-0.115L104.219,43.562z"/>
	</g>
	<g>
		<rect x="59" y="21" style="fill:#A6A8AB;" width="3" height="1"/>
		<path style="fill:#6D6E70;" d="M62,21v1h-3v-1H62 M62,20h-3c-0.552,0-1,0.448-1,1v1c0,0.552,0.448,1,1,1h3c0.552,0,1-0.448,1-1v-1
			C63,20.448,62.552,20,62,20L62,20z"/>
	</g>
	<g>
		<rect x="33" y="21" style="fill:#A6A8AB;" width="3" height="1"/>
		<path style="fill:#6D6E70;" d="M36,21v1h-3v-1H36 M36,20h-3c-0.552,0-1,0.448-1,1v1c0,0.552,0.448,1,1,1h3c0.552,0,1-0.448,1-1v-1
			C37,20.448,36.552,20,36,20L36,20z"/>
	</g>
	<g>
		<polygon style="fill:#E6E7E8;" points="10,20 10,22 8,25 5,25 5,20 		"/>
		<path style="fill:#6D6E70;" d="M10,20v2l-2,3H5v-5H10 M10,19H5c-0.552,0-1,0.448-1,1v5c0,0.552,0.448,1,1,1h3
			c0.334,0,0.647-0.167,0.832-0.445l2-3C10.942,22.39,11,22.197,11,22v-2C11,19.448,10.552,19,10,19L10,19z"/>
	</g>
	<g>
		<polygon style="fill:#E6E7E8;" points="122,23 122,25 125,27 129,27 128,25 126,23 		"/>
		<path style="fill:#6D6E70;" d="M126,23l2,2l1,2h-4l-3-2v-2H126 M126,22h-4c-0.552,0-1,0.448-1,1v2
			c0,0.334,0.167,0.647,0.445,0.832l3,2C124.61,27.942,124.803,28,125,28h4c0.347,0,0.668-0.179,0.851-0.474
			c0.182-0.295,0.199-0.663,0.044-0.973l-1-2c-0.048-0.096-0.111-0.184-0.187-0.26l-2-2C126.52,22.105,126.265,22,126,22L126,22z"/>
	</g>
	<g>
		<polygon style="fill:#BBBDBF;" points="59,5 64,5 72,7 86,15 86,17 59,17 		"/>
		<path style="fill:#6D6E70;" d="M64,5l8,2l14,8v2H59V5H64 M64,4h-5c-0.552,0-1,0.448-1,1v12c0,0.552,0.448,1,1,1h27
			c0.552,0,1-0.448,1-1v-2c0-0.359-0.192-0.69-0.504-0.868l-14-8c-0.079-0.045-0.165-0.08-0.254-0.102l-8-2
			C64.163,4.01,64.082,4,64,4L64,4z"/>
	</g>
	<g>
		<polygon style="fill:#FFFFFF;" points="85,14 87,14 88,16 88,18 85,18 		"/>
		<path style="fill:#6D6E70;" d="M87,14l1,2v2h-3v-4H87 M87,13h-2c-0.552,0-1,0.448-1,1v4c0,0.552,0.448,1,1,1h3
			c0.552,0,1-0.448,1-1v-2c0-0.155-0.036-0.308-0.106-0.447l-1-2C87.725,13.214,87.379,13,87,13L87,13z"/>
	</g>
	<rect x="55" y="2" style="fill:#6D6E70;" width="1" height="39"/>
	<g>
		<polygon style="fill:#BBBDBF;" points="52,5 52,17 33,17 34,5 		"/>
		<path style="fill:#6D6E70;" d="M52,5v12H33l1-12H52 M52,4H34c-0.52,0-0.953,0.399-0.997,0.917l-1,12
			c-0.023,0.279,0.071,0.554,0.261,0.76C32.453,17.883,32.72,18,33,18h19c0.552,0,1-0.448,1-1V5C53,4.448,52.552,4,52,4L52,4z"/>
	</g>
	<g>
		<polygon style="fill:#BBBDBF;" points="27,5 26,17 19,17 17,14 24,6 		"/>
		<path style="fill:#6D6E70;" d="M27,5l-1,12h-7l-2-3l7-8L27,5 M27,4c-0.106,0-0.213,0.017-0.316,0.051l-3,1
			c-0.169,0.056-0.319,0.156-0.436,0.29l-7,8c-0.298,0.34-0.33,0.837-0.079,1.213l2,3C18.353,17.833,18.666,18,19,18h7
			c0.52,0,0.953-0.399,0.997-0.917l1-12c0.028-0.335-0.114-0.662-0.379-0.869C27.439,4.073,27.221,4,27,4L27,4z"/>
	</g>
	<rect x="91" y="13" style="fill:#6D6E70;" width="1" height="15"/>
	<polygon style="fill:#6D6E70;" points="89,41 88,41 91,28 92,28 	"/>
	<polygon style="fill:#6D6E70;" points="30.6,1 29,18 30,18 31.6,1 	"/>
	<rect x="29" y="18" style="fill:#6D6E70;" width="1" height="7"/>
</g>
</svg>
