<?xml version="1.0" encoding="iso-8859-1"?>
<!-- Generator: Adobe Illustrator 17.0.0, SVG Export Plug-In . SVG Version: 6.00 Build 0)  -->
<!DOCTYPE svg PUBLIC "-//W3C//DTD SVG 1.1//EN" "http://www.w3.org/Graphics/SVG/1.1/DTD/svg11.dtd">
<svg version="1.1" id="Layer_1" xmlns="http://www.w3.org/2000/svg" xmlns:xlink="http://www.w3.org/1999/xlink" x="0px" y="0px"
	 width="130px" height="63px" viewBox="0 0 130 63" style="enable-background:new 0 0 130 63;" xml:space="preserve">
<g>
	<g>
		<polygon style="fill:#929497;" points="85,51 23,51 18,47 6,47 6,43 74,43 78,37 82,37 		"/>
		<path style="fill:#6D6E70;" d="M82,37l3,14H23l-5-4H6v-4h68l4-6H82 M82,36h-4c-0.334,0-0.647,0.167-0.832,0.445L73.465,42H6
			c-0.552,0-1,0.448-1,1v4c0,0.552,0.448,1,1,1h11.649l4.726,3.781C22.553,51.923,22.773,52,23,52h62
			c0.302,0,0.588-0.136,0.778-0.371c0.19-0.235,0.263-0.543,0.2-0.838l-3-14C82.879,36.329,82.472,36,82,36L82,36z"/>
	</g>
	<g>
		<path style="fill:#FFFFFF;" d="M85,50c-1,0-2-1-2-2s0-31,0-33c0-3,1-4,4-4c2,0,14,0,16,0c3,0,4,0,6,3s10,13,10,13l5,7l1,1l1,7v8
			H85z"/>
		<path style="fill:#6D6E70;" d="M103,11c3,0,4,0,6,3s10,13,10,13l5,7l1,1l1,7v8H85c-1,0-2-1-2-2s0-31,0-33c0-3,1-4,4-4
			C89,11,101,11,103,11 M103,9H87c-4.093,0-6,1.907-6,6v33c0,2.093,1.907,4,4,4h41c1.105,0,2-0.895,2-2v-8
			c0-0.095-0.007-0.189-0.02-0.283l-1-7c-0.061-0.428-0.26-0.825-0.566-1.131l-0.883-0.883l-4.904-6.865
			c-0.021-0.03-0.043-0.059-0.066-0.087c-0.079-0.099-7.968-9.966-9.898-12.86C108.181,9.165,106.424,9,103,9L103,9z"/>
	</g>
	<g>
		<g>
			<path style="fill:#929497;" d="M110.82,51c-0.954-5.674-5.876-10-11.82-10c-5.944,0-10.866,4.326-11.82,10H110.82z"/>
			<path style="fill:#6D6E70;" d="M99,41c5.944,0,10.866,4.326,11.82,10H87.18C88.134,45.326,93.056,41,99,41 M99,40
				c-6.365,0-11.751,4.556-12.806,10.834c-0.049,0.29,0.033,0.587,0.223,0.812S86.885,52,87.18,52h23.641
				c0.294,0,0.573-0.13,0.763-0.354s0.271-0.521,0.223-0.812C110.751,44.556,105.365,40,99,40L99,40z"/>
		</g>
		<g>
			<circle style="fill:#D0D2D3;" cx="99" cy="53" r="8"/>
			<path style="fill:#6D6E70;" d="M99,45c4.418,0,8,3.582,8,8s-3.582,8-8,8s-8-3.582-8-8S94.582,45,99,45 M99,43
				c-5.514,0-10,4.486-10,10s4.486,10,10,10s10-4.486,10-10S104.514,43,99,43L99,43z"/>
		</g>
		<g>
			<circle style="fill:#FFFFFF;" cx="99" cy="53" r="4"/>
			<path style="fill:#6D6E70;" d="M99,49c2.209,0,4,1.791,4,4s-1.791,4-4,4s-4-1.791-4-4S96.791,49,99,49 M99,48
				c-2.757,0-5,2.243-5,5s2.243,5,5,5s5-2.243,5-5S101.757,48,99,48L99,48z"/>
		</g>
		<g>
			<circle style="fill:#FFFFFF;" cx="99" cy="53" r="1"/>
			<path style="fill:#6D6E70;" d="M99,52c0.553,0,1,0.447,1,1s-0.447,1-1,1s-1-0.447-1-1S98.447,52,99,52 M99,51
				c-1.103,0-2,0.897-2,2s0.897,2,2,2s2-0.897,2-2S100.103,51,99,51L99,51z"/>
		</g>
	</g>
	<g>
		<circle style="fill:#D0D2D3;" cx="35.82" cy="53" r="8"/>
		<path style="fill:#6D6E70;" d="M35.82,45c4.418,0,8,3.582,8,8s-3.582,8-8,8s-8-3.582-8-8S31.402,45,35.82,45 M35.82,43
			c-5.514,0-10,4.486-10,10s4.486,10,10,10s10-4.486,10-10S41.334,43,35.82,43L35.82,43z"/>
	</g>
	<g>
		<circle style="fill:#FFFFFF;" cx="35.82" cy="53" r="4"/>
		<path style="fill:#6D6E70;" d="M35.82,49c2.209,0,4,1.791,4,4s-1.791,4-4,4c-2.209,0-4-1.791-4-4S33.611,49,35.82,49 M35.82,48
			c-2.757,0-5,2.243-5,5s2.243,5,5,5s5-2.243,5-5S38.577,48,35.82,48L35.82,48z"/>
	</g>
	<g>
		<circle style="fill:#FFFFFF;" cx="35.82" cy="53" r="1"/>
		<path style="fill:#6D6E70;" d="M35.82,52c0.553,0,1,0.447,1,1s-0.447,1-1,1s-1-0.447-1-1S35.268,52,35.82,52 M35.82,51
			c-1.103,0-2,0.897-2,2s0.897,2,2,2s2-0.897,2-2S36.923,51,35.82,51L35.82,51z"/>
	</g>
	<g>
		<rect x="90" y="30" style="fill:#A6A8AB;" width="3" height="1"/>
		<path style="fill:#6D6E70;" d="M93,30v1h-3v-1H93 M93,29h-3c-0.552,0-1,0.448-1,1v1c0,0.552,0.448,1,1,1h3c0.552,0,1-0.448,1-1v-1
			C94,29.448,93.552,29,93,29L93,29z"/>
	</g>
	<g>
		<polygon style="fill:#BBBDBF;" points="89,14 106,14 115,26 89,26 		"/>
		<path style="fill:#6D6E70;" d="M105.5,15l7.5,10H90V15H105.5 M106,14H89v12h26L106,14L106,14z"/>
	</g>
	<g>
		<polygon style="fill:#E6E7E8;" points="125,35 121,35 121,41 126,41 		"/>
		<path style="fill:#6D6E70;" d="M125,35l1,6h-5v-6H125 M125,34h-4c-0.552,0-1,0.448-1,1v6c0,0.552,0.448,1,1,1h5
			c0.294,0,0.573-0.129,0.763-0.354s0.272-0.521,0.223-0.811l-1-6C125.906,34.353,125.489,34,125,34L125,34z"/>
	</g>
	<g>
		<polygon style="fill:#FFFFFF;" points="122,47 126,47 128,46 128,51 126,52 122,52 		"/>
		<path style="fill:#6D6E70;" d="M128,46v5l-2,1h-4v-5h4L128,46 M128,44c-0.306,0-0.612,0.07-0.894,0.211L125.528,45H122
			c-1.105,0-2,0.895-2,2v5c0,1.105,0.895,2,2,2h4c0.31,0,0.617-0.072,0.894-0.211l2-1C129.572,52.45,130,51.758,130,51v-5
			c0-0.693-0.359-1.337-0.949-1.701C128.73,44.1,128.366,44,128,44L128,44z"/>
	</g>
	<rect x="86" y="11" style="fill:#6D6E70;" width="1" height="28"/>
	<polygon style="fill:#6D6E70;" points="90,45 89,45 86,39 87,39 	"/>
	<g>
		<polygon style="fill:#FFFFFF;" points="111,20 113,20 114,22 114,26 111,26 		"/>
		<path style="fill:#6D6E70;" d="M113,20l1,2v4h-3v-6H113 M113,19h-2c-0.552,0-1,0.448-1,1v6c0,0.552,0.448,1,1,1h3
			c0.552,0,1-0.448,1-1v-4c0-0.155-0.036-0.308-0.106-0.447l-1-2C113.725,19.214,113.379,19,113,19L113,19z"/>
	</g>
	<g>
		<rect x="2" y="2" style="fill:#FFFFFF;" width="75" height="39"/>
		<path style="fill:#6D6E70;" d="M77,2v39H2V2H77 M77,0H2C0.895,0,0,0.895,0,2v39c0,1.105,0.895,2,2,2h75c1.105,0,2-0.895,2-2V2
			C79,0.895,78.105,0,77,0L77,0z"/>
	</g>
	<rect x="2" y="45" style="fill:#6D6E70;" width="3" height="6"/>
	<rect x="17" y="3" style="fill:#D0D2D3;" width="1" height="37"/>
	<rect x="32" y="3" style="fill:#D0D2D3;" width="1" height="37"/>
	<rect x="47" y="3" style="fill:#D0D2D3;" width="1" height="37"/>
	<rect x="62" y="3" style="fill:#D0D2D3;" width="1" height="37"/>
</g>
</svg>
