<?xml version="1.0" encoding="iso-8859-1"?>
<!-- Generator: Adobe Illustrator 17.0.0, SVG Export Plug-In . SVG Version: 6.00 Build 0)  -->
<!DOCTYPE svg PUBLIC "-//W3C//DTD SVG 1.1//EN" "http://www.w3.org/Graphics/SVG/1.1/DTD/svg11.dtd">
<svg version="1.1" id="Layer_1" xmlns="http://www.w3.org/2000/svg" xmlns:xlink="http://www.w3.org/1999/xlink" x="0px" y="0px"
	 width="133px" height="50px" viewBox="0 0 133 50" style="enable-background:new 0 0 133 50;" xml:space="preserve">
<g>
	<g>
		<path style="fill:#FFFFFF;" d="M128,28v-6.97l-1-2L125,18l-26-2L82,2c0,0-8.75,0-18,0c-2,0-2.31,2.396-2.446,3.01
			C60,12,60,12,60,12v3H6l-1,1v18h14l3,1c0,0,1.605,0,3.523,0C25.19,35.939,25,36.946,25,38c0,4.971,4.029,9,9,9
			c3.406,0,6.37-1.894,7.898-4.685c1.635-1.271,2.763-3.157,3.032-5.315H95l3,1c0,0,1.035,0,2.262,0
			c0.449,1.738,1.463,3.246,2.84,4.315C104.63,45.106,107.594,47,111,47c4.971,0,9-4.029,9-9c0-0.688,1,0,1,0l3-2h4V28z"/>
		<path style="fill:#6D6E70;" d="M82,2l17,14l26,2l2,1.03l1,2V28v8h-4l-3,2c0,0-0.444-0.306-0.741-0.306
			c-0.148,0-0.259,0.077-0.259,0.306c0,4.971-4.029,9-9,9c-3.406,0-6.37-1.894-7.898-4.685c-1.377-1.069-2.391-2.577-2.84-4.315
			C99.035,38,98,38,98,38l-3-1H44.931c-0.27,2.158-1.397,4.045-3.032,5.315C40.37,45.106,37.406,47,34,47c-4.971,0-9-4.029-9-9
			c0-1.054,0.19-2.061,0.523-3C23.605,35,22,35,22,35l-3-1H5V16l1-1h54v-3c0,0,0,0,1.554-6.99C61.69,4.396,62,2,64,2
			C73.25,2,82,2,82,2 M82,0H64c-1.59,0-3.639,0.771-4.372,4.446l-0.027,0.13l-1.554,6.99C58.016,11.709,58,11.854,58,12v1H6
			c-0.53,0-1.039,0.211-1.414,0.586l-1,1C3.211,14.961,3,15.47,3,16v18c0,1.105,0.895,2,2,2h13.675l2.692,0.897
			C21.571,36.965,21.785,37,22,37h1.047C23.016,37.332,23,37.666,23,38c0,6.065,4.935,11,11,11c3.883,0,7.466-2.046,9.448-5.367
			c1.466-1.237,2.526-2.836,3.088-4.633h48.139l2.692,0.897C97.571,39.965,97.785,40,98,40h0.845
			c0.612,1.394,1.54,2.645,2.707,3.633C103.533,46.954,107.117,49,111,49c5.449,0,9.985-3.983,10.851-9.19
			c0.089-0.042,0.175-0.09,0.258-0.146L124.606,38H128c1.105,0,2-0.895,2-2v-8v-6.97c0-0.31-0.072-0.617-0.211-0.894l-1-2
			c-0.19-0.38-0.496-0.689-0.873-0.884l-2-1.03c-0.237-0.122-0.496-0.196-0.763-0.216l-25.37-1.952L83.271,0.456
			C82.913,0.161,82.464,0,82,0L82,0z"/>
	</g>
	<path style="fill:#929497;" d="M48,25.5c-0.161,0-0.319-0.078-0.416-0.223C45.808,22.612,41.184,19.5,34,19.5
		s-11.808,3.112-13.584,5.777c-0.154,0.23-0.466,0.291-0.693,0.139c-0.229-0.153-0.292-0.463-0.139-0.693
		C21.498,21.852,26.422,18.5,34,18.5s12.502,3.352,14.416,6.223c0.153,0.23,0.091,0.54-0.139,0.693
		C48.192,25.473,48.096,25.5,48,25.5z"/>
	<path style="fill:#929497;" d="M100,24.323c-0.143,0-0.284-0.061-0.383-0.179c-0.178-0.211-0.15-0.527,0.062-0.705
		c2.985-2.504,7.112-3.94,11.321-3.94c3.719,0,7.371,1.118,10.286,3.148c0.227,0.158,0.282,0.469,0.124,0.696
		c-0.157,0.228-0.468,0.283-0.696,0.125c-2.748-1.915-6.198-2.969-9.714-2.969c-3.92,0-7.911,1.386-10.679,3.707
		C100.228,24.285,100.113,24.323,100,24.323z"/>
	<g>
		<path style="fill:#929497;" d="M46.949,37C46.437,30.289,40.843,25,34,25c-6.076,0-11.162,4.173-12.588,9.804L22,35
			c0,0,1.605,0,3.523,0C25.19,35.939,25,36.946,25,38c0,4.971,4.029,9,9,9c3.406,0,6.37-1.894,7.898-4.685
			c1.635-1.271,2.763-3.157,3.032-5.315H46.949z"/>
		<path style="fill:#6D6E70;" d="M34,25c6.843,0,12.437,5.289,12.949,12h-2.018c-0.27,2.158-1.397,4.045-3.032,5.315
			C40.37,45.106,37.406,47,34,47c-4.971,0-9-4.029-9-9c0-1.054,0.19-2.061,0.523-3C23.605,35,22,35,22,35l-0.588-0.196
			C22.838,29.173,27.924,25,34,25 M34,24c-6.408,0-11.983,4.342-13.557,10.558c-0.129,0.507,0.156,1.028,0.653,1.194l0.588,0.196
			C21.785,35.983,21.892,36,22,36h2.207C24.069,36.661,24,37.33,24,38c0,5.514,4.486,10,10,10c3.586,0,6.891-1.92,8.674-5.024
			c1.577-1.283,2.654-3.021,3.095-4.976h1.179c0.278,0,0.544-0.116,0.733-0.32c0.189-0.204,0.285-0.478,0.264-0.756
			C47.394,29.677,41.268,24,34,24L34,24z"/>
	</g>
	<g>
		<path style="fill:#929497;" d="M103.102,42.315C104.63,45.106,107.594,47,111,47c4.971,0,9-4.029,9-9c0-0.688,1,0,1,0l2.846-1.897
			C122.926,29.824,117.535,25,111,25c-7.182,0-13,5.82-13,13c0,0,1.035,0,2.262,0C100.711,39.738,101.725,41.246,103.102,42.315z"/>
		<path style="fill:#6D6E70;" d="M111,25c6.535,0,11.926,4.824,12.846,11.103L121,38c0,0-0.444-0.306-0.741-0.306
			c-0.148,0-0.259,0.077-0.259,0.306c0,4.971-4.029,9-9,9c-3.406,0-6.37-1.894-7.898-4.685c-1.377-1.069-2.391-2.577-2.84-4.315
			C99.035,38,98,38,98,38C98,30.82,103.818,25,111,25 M111,24c-7.72,0-14,6.28-14,14c0,0.552,0.448,1,1,1h1.523
			c0.55,1.548,1.524,2.934,2.802,3.976C104.109,46.08,107.414,48,111,48c5.177,0,9.448-3.954,9.951-9.001
			C120.967,39,120.984,39,121,39c0.193,0,0.387-0.056,0.555-0.168l2.846-1.897c0.321-0.214,0.491-0.595,0.435-0.977
			C123.836,29.141,117.888,24,111,24L111,24z"/>
	</g>
	<g>
		<rect x="5" y="18" style="fill:#E6E7E8;" width="3" height="6"/>
		<path style="fill:#6D6E70;" d="M8,18v6H5v-6H8 M8,17H5c-0.552,0-1,0.448-1,1v6c0,0.552,0.448,1,1,1h3c0.552,0,1-0.448,1-1v-6
			C9,17.448,8.552,17,8,17L8,17z"/>
	</g>
	<g>
		<polygon style="fill:#FFFFFF;" points="9,30 5,30 3,29 2,29 2,34 4,35 9,35 		"/>
		<path style="fill:#6D6E70;" d="M3,29l2,1h4v5H4l-2-1v-5H3 M3,27H2c-1.105,0-2,0.895-2,2v5c0,0.758,0.428,1.45,1.106,1.789l2,1
			C3.383,36.928,3.69,37,4,37h5c1.105,0,2-0.895,2-2v-5c0-1.105-0.895-2-2-2H5.472l-1.578-0.789C3.617,27.072,3.31,27,3,27L3,27z"/>
	</g>
	<g>
		<polygon style="fill:#FFFFFF;" points="125,33 129,33 131,32 131,37 129,38 125,38 		"/>
		<path style="fill:#6D6E70;" d="M131,32v5l-2,1h-4v-5h4L131,32 M131,30c-0.306,0-0.612,0.07-0.894,0.211L128.528,31H125
			c-1.105,0-2,0.895-2,2v5c0,1.105,0.895,2,2,2h4c0.31,0,0.617-0.072,0.894-0.211l2-1C132.572,38.45,133,37.758,133,37v-5
			c0-0.693-0.359-1.337-0.949-1.701C131.73,30.1,131.366,30,131,30L131,30z"/>
	</g>
	<g>
		<polygon style="fill:#E6E7E8;" points="128,22 125,22 124,23 125,27 126,28 128,28 		"/>
		<path style="fill:#6D6E70;" d="M128,22v6h-2l-1-1l-1-4l1-1H128 M128,21h-3c-0.265,0-0.52,0.105-0.707,0.293l-1,1
			c-0.248,0.248-0.348,0.609-0.263,0.95l1,4c0.044,0.176,0.135,0.336,0.263,0.465l1,1C125.48,28.895,125.735,29,126,29h2
			c0.552,0,1-0.448,1-1v-6C129,21.448,128.552,21,128,21L128,21z"/>
	</g>
	<g>
		<polygon style="fill:#BBBDBF;" points="93,15 68,15 68,3 80,3 93,14 		"/>
		<path style="fill:#6D6E70;" d="M79.634,4l11.818,10H69V4H79.634 M80,3H68v12h25v-1L80,3L80,3z"/>
	</g>
	<g>
		<polygon style="fill:#FFFFFF;" points="89,12 91,12 92,14 92,16 89,16 		"/>
		<path style="fill:#6D6E70;" d="M91,12l1,2v2h-3v-4H91 M91,11h-2c-0.552,0-1,0.448-1,1v4c0,0.552,0.448,1,1,1h3
			c0.552,0,1-0.448,1-1v-2c0-0.155-0.036-0.308-0.106-0.447l-1-2C91.725,11.214,91.379,11,91,11L91,11z"/>
	</g>
	<g>
		<rect x="70" y="19" style="fill:#A6A8AB;" width="3" height="1"/>
		<path style="fill:#6D6E70;" d="M73,19v1h-3v-1H73 M73,18h-3c-0.552,0-1,0.448-1,1v1c0,0.552,0.448,1,1,1h3c0.552,0,1-0.448,1-1v-1
			C74,18.448,73.552,18,73,18L73,18z"/>
	</g>
	<rect x="96" y="13" style="fill:#6D6E70;" width="1" height="12"/>
	<polygon style="fill:#6D6E70;" points="95,37 94,37 96,25 97,25 	"/>
	<rect x="65" y="2" style="fill:#6D6E70;" width="1" height="35"/>
	<g>
		<g>
			<circle style="fill:#D0D2D3;" cx="34" cy="38" r="10"/>
			<path style="fill:#6D6E70;" d="M34,28c5.523,0,10,4.477,10,10s-4.477,10-10,10s-10-4.477-10-10S28.477,28,34,28 M34,26
				c-6.617,0-12,5.383-12,12s5.383,12,12,12s12-5.383,12-12S40.617,26,34,26L34,26z"/>
		</g>
		<g>
			<circle style="fill:#FFFFFF;" cx="34" cy="38" r="5"/>
			<path style="fill:#6D6E70;" d="M34,33c2.762,0,5,2.238,5,5s-2.238,5-5,5s-5-2.238-5-5S31.238,33,34,33 M34,32
				c-3.308,0-6,2.692-6,6s2.692,6,6,6s6-2.692,6-6S37.308,32,34,32L34,32z"/>
		</g>
		<g>
			<circle style="fill:#6D6E70;" cx="31.5" cy="35.5" r="0.5"/>
			<circle style="fill:#6D6E70;" cx="36.5" cy="40.5" r="0.5"/>
			<circle style="fill:#6D6E70;" cx="36.5" cy="35.5" r="0.5"/>
			<circle style="fill:#6D6E70;" cx="31.5" cy="40.5" r="0.5"/>
			<circle style="fill:#6D6E70;" cx="34" cy="34.464" r="0.5"/>
			<circle style="fill:#6D6E70;" cx="34" cy="41.536" r="0.5"/>
			<circle style="fill:#6D6E70;" cx="37.536" cy="38" r="0.5"/>
			<circle style="fill:#6D6E70;" cx="30.464" cy="38" r="0.5"/>
		</g>
		<g>
			<path style="fill:#6D6E70;" d="M34,36c-1.104,0-2,0.895-2,2s0.896,2,2,2c1.104,0,2-0.895,2-2S35.104,36,34,36z M34,39
				c-0.552,0-1-0.447-1-1c0-0.553,0.448-1,1-1s1,0.447,1,1C35,38.553,34.552,39,34,39z"/>
		</g>
	</g>
	<g>
		<g>
			<circle style="fill:#D0D2D3;" cx="111" cy="38" r="10"/>
			<path style="fill:#6D6E70;" d="M111,28c5.523,0,10,4.477,10,10s-4.477,10-10,10s-10-4.477-10-10S105.477,28,111,28 M111,26
				c-6.617,0-12,5.383-12,12s5.383,12,12,12s12-5.383,12-12S117.617,26,111,26L111,26z"/>
		</g>
		<g>
			<circle style="fill:#FFFFFF;" cx="111" cy="38" r="5"/>
			<path style="fill:#6D6E70;" d="M111,33c2.762,0,5,2.238,5,5s-2.238,5-5,5s-5-2.238-5-5S108.238,33,111,33 M111,32
				c-3.308,0-6,2.692-6,6s2.692,6,6,6s6-2.692,6-6S114.308,32,111,32L111,32z"/>
		</g>
		<g>
			<circle style="fill:#6D6E70;" cx="108.5" cy="35.5" r="0.5"/>
			<circle style="fill:#6D6E70;" cx="113.5" cy="40.5" r="0.5"/>
			<circle style="fill:#6D6E70;" cx="113.5" cy="35.5" r="0.5"/>
			<circle style="fill:#6D6E70;" cx="108.5" cy="40.5" r="0.5"/>
			<circle style="fill:#6D6E70;" cx="111" cy="34.464" r="0.5"/>
			<circle style="fill:#6D6E70;" cx="111" cy="41.536" r="0.5"/>
			<circle style="fill:#6D6E70;" cx="114.536" cy="38" r="0.5"/>
			<circle style="fill:#6D6E70;" cx="107.464" cy="38" r="0.5"/>
		</g>
		<g>
			<path style="fill:#6D6E70;" d="M111,36c-1.104,0-2,0.895-2,2s0.896,2,2,2c1.104,0,2-0.895,2-2S112.104,36,111,36z M111,39
				c-0.552,0-1-0.447-1-1c0-0.553,0.448-1,1-1s1,0.447,1,1C112,38.553,111.552,39,111,39z"/>
		</g>
	</g>
</g>
</svg>
