<?xml version="1.0" encoding="iso-8859-1"?>
<!-- Generator: Adobe Illustrator 17.0.0, SVG Export Plug-In . SVG Version: 6.00 Build 0)  -->
<!DOCTYPE svg PUBLIC "-//W3C//DTD SVG 1.1//EN" "http://www.w3.org/Graphics/SVG/1.1/DTD/svg11.dtd">
<svg version="1.1" id="Layer_1" xmlns="http://www.w3.org/2000/svg" xmlns:xlink="http://www.w3.org/1999/xlink" x="0px" y="0px"
	 width="141px" height="50px" viewBox="0 0 141 50" style="enable-background:new 0 0 141 50;" xml:space="preserve">
<g>
	<g>
		<path style="fill:#FFFFFF;" d="M136,28v-6.97l-1-2L133,18l-26-2L90,2c0,0-27.75,0-37,0c-2,0-2.31,2.396-2.446,3.01
			C49,12,49,12,49,12v3H6l-1,1v18h11l3,1c0,0,1.606,0,3.523,0C22.19,35.939,22,36.946,22,38c0,4.971,4.029,9,9,9
			c3.407,0,6.37-1.894,7.898-4.685c1.636-1.271,2.763-3.157,3.033-5.315H103l3,1c0,0,1.035,0,2.262,0
			c0.449,1.738,1.463,3.246,2.84,4.315C112.63,45.106,115.594,47,119,47c4.971,0,9-4.029,9-9c0-0.688,1,0,1,0l3-2h4V28z"/>
		<path style="fill:#6D6E70;" d="M90,2l17,14l26,2l2,1.03l1,2V28v8h-4l-3,2c0,0-0.444-0.306-0.741-0.306
			c-0.148,0-0.259,0.077-0.259,0.306c0,4.971-4.029,9-9,9c-3.406,0-6.37-1.894-7.898-4.685c-1.377-1.069-2.391-2.577-2.84-4.315
			c-1.226,0-2.262,0-2.262,0l-3-1H41.931c-0.27,2.158-1.397,4.045-3.033,5.315C37.37,45.106,34.407,47,31,47c-4.971,0-9-4.029-9-9
			c0-1.054,0.19-2.061,0.523-3C20.606,35,19,35,19,35l-3-1H5V16l1-1h43v-3c0,0,0,0,1.554-6.99C50.69,4.396,51,2,53,2
			C62.25,2,90,2,90,2 M90,0H53c-1.59,0-3.639,0.771-4.372,4.446l-0.027,0.13l-1.554,6.99C47.016,11.709,47,11.854,47,12v1H6
			c-0.53,0-1.039,0.211-1.414,0.586l-1,1C3.211,14.961,3,15.47,3,16v18c0,1.105,0.895,2,2,2h10.675l2.692,0.897
			C18.571,36.965,18.785,37,19,37h1.047C20.016,37.333,20,37.666,20,38c0,6.065,4.935,11,11,11c3.883,0,7.466-2.046,9.448-5.367
			c1.466-1.237,2.527-2.836,3.088-4.633h59.139l2.692,0.897C105.571,39.965,105.785,40,106,40h0.845
			c0.612,1.394,1.54,2.645,2.707,3.633C111.533,46.954,115.117,49,119,49c5.449,0,9.985-3.983,10.851-9.19
			c0.089-0.042,0.175-0.09,0.258-0.146L132.606,38H136c1.105,0,2-0.895,2-2v-8v-6.97c0-0.31-0.072-0.617-0.211-0.894l-1-2
			c-0.19-0.38-0.496-0.689-0.873-0.884l-2-1.03c-0.237-0.122-0.496-0.196-0.762-0.216l-25.37-1.952L91.271,0.456
			C90.913,0.161,90.464,0,90,0L90,0z"/>
	</g>
	<path style="fill:#929497;" d="M45,25.5c-0.162,0-0.32-0.078-0.417-0.223C42.807,22.612,38.184,19.5,31,19.5
		s-11.807,3.112-13.584,5.777c-0.153,0.229-0.463,0.291-0.693,0.139c-0.23-0.153-0.292-0.463-0.139-0.693
		C18.498,21.852,23.421,18.5,31,18.5s12.502,3.352,14.416,6.223c0.153,0.23,0.091,0.54-0.139,0.693
		C45.192,25.473,45.096,25.5,45,25.5z"/>
	<path style="fill:#929497;" d="M108,24.323c-0.143,0-0.285-0.061-0.384-0.179c-0.177-0.211-0.149-0.527,0.062-0.705
		c2.986-2.504,7.112-3.94,11.321-3.94c3.718,0,7.371,1.118,10.286,3.148c0.227,0.158,0.282,0.469,0.125,0.696
		c-0.158,0.227-0.471,0.282-0.696,0.125c-2.749-1.915-6.198-2.969-9.714-2.969c-3.919,0-7.912,1.386-10.679,3.707
		C108.228,24.285,108.114,24.323,108,24.323z"/>
	<g>
		<path style="fill:#929497;" d="M43.95,37C43.437,30.289,37.843,25,31,25c-6.076,0-11.162,4.173-12.588,9.804L19,35
			c0,0,1.606,0,3.523,0C22.19,35.939,22,36.946,22,38c0,4.971,4.029,9,9,9c3.407,0,6.37-1.894,7.898-4.685
			c1.636-1.271,2.763-3.157,3.033-5.315H43.95z"/>
		<path style="fill:#6D6E70;" d="M31,25c6.843,0,12.437,5.289,12.95,12h-2.019c-0.27,2.158-1.397,4.045-3.033,5.315
			C37.37,45.106,34.407,47,31,47c-4.971,0-9-4.029-9-9c0-1.054,0.19-2.061,0.523-3C20.606,35,19,35,19,35l-0.588-0.196
			C19.838,29.173,24.924,25,31,25 M31,24c-6.408,0-11.983,4.342-13.557,10.558c-0.129,0.508,0.156,1.028,0.653,1.194l0.588,0.196
			C18.785,35.983,18.892,36,19,36h2.207C21.069,36.661,21,37.33,21,38c0,5.514,4.486,10,10,10c3.586,0,6.891-1.92,8.674-5.024
			c1.577-1.283,2.654-3.02,3.096-4.976h1.18c0.278,0,0.544-0.116,0.734-0.32s0.285-0.478,0.264-0.756C44.394,29.677,38.268,24,31,24
			L31,24z"/>
	</g>
	<g>
		<path style="fill:#929497;" d="M111.102,42.315C112.63,45.106,115.594,47,119,47c4.971,0,9-4.029,9-9c0-0.688,1,0,1,0l2.846-1.897
			C130.926,29.824,125.535,25,119,25c-7.182,0-13,5.82-13,13c0,0,1.035,0,2.262,0C108.711,39.738,109.725,41.246,111.102,42.315z"/>
		<path style="fill:#6D6E70;" d="M119,25c6.535,0,11.926,4.824,12.846,11.103L129,38c0,0-0.444-0.306-0.741-0.306
			c-0.148,0-0.259,0.077-0.259,0.306c0,4.971-4.029,9-9,9c-3.406,0-6.37-1.894-7.898-4.685c-1.377-1.069-2.391-2.577-2.84-4.315
			c-1.226,0-2.262,0-2.262,0C106,30.82,111.818,25,119,25 M119,24c-7.72,0-14,6.28-14,14c0,0.552,0.448,1,1,1h1.523
			c0.55,1.548,1.524,2.934,2.802,3.976C112.109,46.08,115.414,48,119,48c5.177,0,9.448-3.954,9.951-9.001
			C128.967,39,128.984,39,129,39c0.193,0,0.387-0.056,0.555-0.168l2.846-1.897c0.321-0.214,0.491-0.595,0.435-0.977
			C131.836,29.141,125.889,24,119,24L119,24z"/>
	</g>
	<g>
		<rect x="5" y="18" style="fill:#E6E7E8;" width="3" height="6"/>
		<path style="fill:#6D6E70;" d="M8,18v6H5v-6H8 M8,17H5c-0.552,0-1,0.448-1,1v6c0,0.552,0.448,1,1,1h3c0.552,0,1-0.448,1-1v-6
			C9,17.448,8.552,17,8,17L8,17z"/>
	</g>
	<g>
		<polygon style="fill:#FFFFFF;" points="9,30 5,30 3,29 2,29 2,34 4,35 9,35 		"/>
		<path style="fill:#6D6E70;" d="M3,29l2,1h4v5H4l-2-1v-5H3 M3,27H2c-1.105,0-2,0.895-2,2v5c0,0.758,0.428,1.45,1.106,1.789l2,1
			C3.383,36.928,3.69,37,4,37h5c1.105,0,2-0.895,2-2v-5c0-1.105-0.895-2-2-2H5.472l-1.578-0.789C3.617,27.072,3.31,27,3,27L3,27z"/>
	</g>
	<g>
		<polygon style="fill:#FFFFFF;" points="133,33 137,33 139,32 139,37 137,38 133,38 		"/>
		<path style="fill:#6D6E70;" d="M139,32v5l-2,1h-4v-5h4L139,32 M139,30c-0.306,0-0.612,0.07-0.894,0.211L136.528,31H133
			c-1.105,0-2,0.895-2,2v5c0,1.105,0.895,2,2,2h4c0.31,0,0.617-0.072,0.894-0.211l2-1C140.572,38.45,141,37.758,141,37v-5
			c0-0.693-0.359-1.337-0.949-1.701C139.73,30.1,139.366,30,139,30L139,30z"/>
	</g>
	<g>
		<polygon style="fill:#E6E7E8;" points="136,22 133,22 132,23 133,27 134,28 136,28 		"/>
		<path style="fill:#6D6E70;" d="M136,22v6h-2l-1-1l-1-4l1-1H136 M136,21h-3c-0.265,0-0.52,0.105-0.707,0.293l-1,1
			c-0.248,0.248-0.348,0.609-0.263,0.95l1,4c0.044,0.176,0.135,0.336,0.263,0.465l1,1C133.48,28.895,133.735,29,134,29h2
			c0.552,0,1-0.448,1-1v-6C137,21.448,136.552,21,136,21L136,21z"/>
	</g>
	<g>
		<polygon style="fill:#929497;" points="71,15 52,15 52,13 54,3 71,3 		"/>
		<path style="fill:#6D6E70;" d="M70,4v10H53v-0.901L54.82,4H70 M71,3H54l-2,10v2h19V3L71,3z"/>
	</g>
	<g>
		<polygon style="fill:#929497;" points="101,15 76,15 76,3 88,3 101,14 		"/>
		<path style="fill:#6D6E70;" d="M87.634,4l11.818,10H77V4H87.634 M88,3H76v12h25v-1L88,3L88,3z"/>
	</g>
	<g>
		<polygon style="fill:#FFFFFF;" points="97,12 99,12 100,14 100,16 97,16 		"/>
		<path style="fill:#6D6E70;" d="M99,12l1,2v2h-3v-4H99 M99,11h-2c-0.552,0-1,0.448-1,1v4c0,0.552,0.448,1,1,1h3
			c0.552,0,1-0.448,1-1v-2c0-0.155-0.036-0.308-0.106-0.447l-1-2C99.725,11.214,99.379,11,99,11L99,11z"/>
	</g>
	<g>
		<rect x="53" y="19" style="fill:#A6A8AB;" width="3" height="1"/>
		<path style="fill:#6D6E70;" d="M56,19v1h-3v-1H56 M56,18h-3c-0.552,0-1,0.448-1,1v1c0,0.552,0.448,1,1,1h3c0.552,0,1-0.448,1-1v-1
			C57,18.448,56.552,18,56,18L56,18z"/>
	</g>
	<g>
		<rect x="78" y="19" style="fill:#A6A8AB;" width="3" height="1"/>
		<path style="fill:#6D6E70;" d="M81,19v1h-3v-1H81 M81,18h-3c-0.552,0-1,0.448-1,1v1c0,0.552,0.448,1,1,1h3c0.552,0,1-0.448,1-1v-1
			C82,18.448,81.552,18,81,18L81,18z"/>
	</g>
	<g>
		<polygon style="fill:#6D6E70;" points="49,34 49,15 48,15 48,34 49,37 50,37 		"/>
		<polygon style="fill:#6D6E70;" points="104,13 104,25 102,37 103,37 105,25 105,13 		"/>
		<rect x="73" y="2" style="fill:#6D6E70;" width="1" height="35"/>
	</g>
	<g>
		<g>
			<circle style="fill:#D0D2D3;" cx="31" cy="38" r="10"/>
			<path style="fill:#6D6E70;" d="M31,28c5.523,0,10,4.477,10,10s-4.477,10-10,10s-10-4.477-10-10S25.477,28,31,28 M31,26
				c-6.617,0-12,5.383-12,12s5.383,12,12,12s12-5.383,12-12S37.617,26,31,26L31,26z"/>
		</g>
		<g>
			<circle style="fill:#FFFFFF;" cx="31" cy="38" r="5"/>
			<path style="fill:#6D6E70;" d="M31,33c2.762,0,5,2.238,5,5s-2.238,5-5,5s-5-2.238-5-5S28.238,33,31,33 M31,32
				c-3.308,0-6,2.692-6,6s2.692,6,6,6s6-2.692,6-6S34.308,32,31,32L31,32z"/>
		</g>
		<g>
			<circle style="fill:#6D6E70;" cx="28.5" cy="35.5" r="0.5"/>
			<circle style="fill:#6D6E70;" cx="33.5" cy="40.5" r="0.5"/>
			<circle style="fill:#6D6E70;" cx="33.5" cy="35.5" r="0.5"/>
			<circle style="fill:#6D6E70;" cx="28.5" cy="40.5" r="0.5"/>
			<circle style="fill:#6D6E70;" cx="31" cy="34.464" r="0.5"/>
			<circle style="fill:#6D6E70;" cx="31" cy="41.536" r="0.5"/>
			<circle style="fill:#6D6E70;" cx="34.536" cy="38" r="0.5"/>
			<circle style="fill:#6D6E70;" cx="27.464" cy="38" r="0.5"/>
		</g>
		<g>
			<path style="fill:#6D6E70;" d="M31,36c-1.104,0-2,0.895-2,2s0.896,2,2,2c1.104,0,2-0.895,2-2S32.104,36,31,36z M31,39
				c-0.552,0-1-0.447-1-1c0-0.553,0.448-1,1-1s1,0.447,1,1C32,38.553,31.552,39,31,39z"/>
		</g>
	</g>
	<g>
		<g>
			<circle style="fill:#D0D2D3;" cx="119" cy="38" r="10"/>
			<path style="fill:#6D6E70;" d="M119,28c5.523,0,10,4.477,10,10s-4.477,10-10,10s-10-4.477-10-10S113.477,28,119,28 M119,26
				c-6.617,0-12,5.383-12,12s5.383,12,12,12s12-5.383,12-12S125.617,26,119,26L119,26z"/>
		</g>
		<g>
			<circle style="fill:#FFFFFF;" cx="119" cy="38" r="5"/>
			<path style="fill:#6D6E70;" d="M119,33c2.762,0,5,2.238,5,5s-2.238,5-5,5s-5-2.238-5-5S116.238,33,119,33 M119,32
				c-3.308,0-6,2.692-6,6s2.692,6,6,6s6-2.692,6-6S122.308,32,119,32L119,32z"/>
		</g>
		<g>
			<circle style="fill:#6D6E70;" cx="116.5" cy="35.5" r="0.5"/>
			<circle style="fill:#6D6E70;" cx="121.5" cy="40.5" r="0.5"/>
			<circle style="fill:#6D6E70;" cx="121.5" cy="35.5" r="0.5"/>
			<circle style="fill:#6D6E70;" cx="116.5" cy="40.5" r="0.5"/>
			<circle style="fill:#6D6E70;" cx="119" cy="34.464" r="0.5"/>
			<circle style="fill:#6D6E70;" cx="119" cy="41.536" r="0.5"/>
			<circle style="fill:#6D6E70;" cx="122.536" cy="38" r="0.5"/>
			<circle style="fill:#6D6E70;" cx="115.464" cy="38" r="0.5"/>
		</g>
		<g>
			<path style="fill:#6D6E70;" d="M119,36c-1.104,0-2,0.895-2,2s0.896,2,2,2c1.104,0,2-0.895,2-2S120.104,36,119,36z M119,39
				c-0.552,0-1-0.447-1-1c0-0.553,0.448-1,1-1s1,0.447,1,1C120,38.553,119.552,39,119,39z"/>
		</g>
	</g>
</g>
</svg>
